<?xml version="1.0" encoding="UTF-8"?>
<svg xmlns="http://www.w3.org/2000/svg" xmlns:xlink="http://www.w3.org/1999/xlink" viewBox="0 0 527.36 727.59">
  <defs>
    <style>
      .cls-1 {
        fill: url(#Degradado_sin_nombre_4);
        mix-blend-mode: multiply;
      }

      .cls-2 {
        fill: #fff;
      }

      .cls-3 {
        isolation: isolate;
      }

      .cls-4 {
        fill: #b0b0b0;
      }

      .cls-5 {
        clip-path: url(#clippath);
      }

      .cls-6 {
        fill: none;
      }

      .cls-7 {
        fill: #874d00;
      }

      .cls-8 {
        fill: #f7b033;
      }
    </style>
    <radialGradient id="Degradado_sin_nombre_4" data-name="Degradado sin nombre 4" cx="261.49" cy="262.92" fx="261.49" fy="262.92" r="391.35" gradientTransform="translate(262.5 -107.9) rotate(45)" gradientUnits="userSpaceOnUse">
      <stop offset="0" stop-color="#fff" stop-opacity="0"/>
      <stop offset="1" stop-color="#b06b0e"/>
    </radialGradient>
    <clipPath id="clippath">
      <path class="cls-6" d="m527.36,262.91c0,145.22-117.74,262.93-262.94,262.93S1.5,408.14,1.5,262.91,119.23,0,264.43,0s262.94,117.71,262.94,262.91Z"/>
    </clipPath>
  </defs>
  <g class="cls-3">
    <g id="Layer_2" data-name="Layer 2">
      <g id="Capa_4" data-name="Capa 4">
        <g>
          <g>
            <circle class="cls-8" cx="261.49" cy="262.92" r="260.42" transform="translate(-109.32 261.91) rotate(-45)"/>
            <circle class="cls-1" cx="261.49" cy="262.92" r="260.42" transform="translate(-109.32 261.91) rotate(-45)"/>
            <path class="cls-7" d="m445.64,78.78c73.91,72.11,97.06,188.94,56.91,283.99-70.67,171.95-294.78,216.82-426.25,85.35C-55.19,316.66-10.31,92.53,161.64,21.86c95.05-40.14,211.89-17,283.99,56.92h0Zm0,0C373.5,5.17,256.69-17.98,162,22.74-7.82,93.21-52.04,316.35,78.41,446.01c129.65,130.45,352.81,86.24,423.27-83.59,40.7-94.68,17.58-211.5-56.04-283.63h0Z"/>
          </g>
          <g class="cls-5">
            <path class="cls-2" d="m367.94,148.82h0c-35.73,1.64-40.03,8.57-74.15-2.74-27.53-9.13-37.83-14.75-64.59,1.09-27.28,16.15-30.15,44.03-47.7,63.46-13.58,15.03-37.43,15.8-49.33,31.11-9.23,11.87-3.18,28.99,3.18,42.62,11.32,24.28,22.8,48.82,39.46,69.81,16.66,20.98,39.26,38.4,65.54,43.6,14.91,2.95,30.37,1.88,45.33-.85,15.8-2.89,32.48-8.47,41.58-21.7,4.59-6.68,6.78-14.67,9.02-22.47,14.15-49.18,33.56-96.85,57.77-141.93,3.92-7.29,8.03-14.71,9.23-22.9,2.93-19.86-15.3-40.02-35.35-39.1Zm-118.03,154.03c-51.44-15.18-34.55-101.44,21.41-87.7,60.35,14.81,34.55,104.22-21.41,87.7Z"/>
          </g>
          <g>
            <path class="cls-4" d="m232.03,627.29h-15.92v9.54h15.46v5.63h-15.46v13.27h15.92v5.64h-21.92v-39.72h21.92v5.64Z"/>
            <path class="cls-4" d="m260.33,640.7h16.41v1.31c0,2.98-.35,5.62-1.05,7.92-.69,2.13-1.84,4.12-3.47,5.97-3.69,4.15-8.38,6.22-14.07,6.22s-10.32-2-14.28-6.02c-3.96-4.03-5.94-8.87-5.94-14.51s2.01-10.65,6.04-14.67c4.03-4.03,8.94-6.04,14.72-6.04,3.1,0,6,.63,8.7,1.9,2.57,1.27,5.1,3.33,7.59,6.17l-4.27,4.09c-3.26-4.34-7.23-6.51-11.91-6.51-4.2,0-7.73,1.45-10.57,4.35-2.85,2.85-4.27,6.41-4.27,10.7s1.58,8.07,4.76,10.93c2.97,2.66,6.18,3.99,9.65,3.99,2.95,0,5.6-1,7.95-2.98,2.35-2.01,3.66-4.41,3.94-7.2h-9.91v-5.63Z"/>
            <path class="cls-4" d="m304.71,640.7h16.41v1.31c0,2.98-.35,5.62-1.06,7.92-.69,2.13-1.84,4.12-3.47,5.97-3.69,4.15-8.38,6.22-14.07,6.22s-10.32-2-14.28-6.02c-3.96-4.03-5.94-8.87-5.94-14.51s2.01-10.65,6.05-14.67c4.03-4.03,8.93-6.04,14.72-6.04,3.1,0,6,.63,8.7,1.9,2.57,1.27,5.1,3.33,7.59,6.17l-4.27,4.09c-3.26-4.34-7.23-6.51-11.91-6.51-4.2,0-7.73,1.45-10.57,4.35-2.85,2.85-4.27,6.41-4.27,10.7s1.59,8.07,4.76,10.93c2.97,2.66,6.18,3.99,9.65,3.99,2.95,0,5.6-1,7.95-2.98,2.35-2.01,3.66-4.41,3.94-7.2h-9.9v-5.63Z"/>
            <path class="cls-4" d="m181.22,700.42h17.13v-15.54h5.99v39.72h-5.99v-18.55h-17.13v18.55h-6v-39.72h6v15.54Z"/>
            <path class="cls-4" d="m219.86,684.88v23.93c0,3.41.56,5.91,1.67,7.49,1.66,2.28,4,3.42,7.02,3.42s5.38-1.14,7.05-3.42c1.11-1.53,1.67-4.02,1.67-7.49v-23.93h6v25.57c0,4.18-1.3,7.63-3.91,10.34-2.93,3.02-6.53,4.53-10.81,4.53s-7.86-1.51-10.78-4.53c-2.61-2.71-3.91-6.16-3.91-10.34v-25.57h6Z"/>
            <path class="cls-4" d="m274.71,690.52h-15.93v9.54h15.46v5.63h-15.46v13.27h15.93v5.64h-21.92v-39.72h21.92v5.64Z"/>
            <path class="cls-4" d="m284.59,684.88l10.98,27.53,11.14-27.53h6.56l-17.83,42.71-17.42-42.71h6.56Z"/>
            <path class="cls-4" d="m314.48,704.56c0-5.59,2.05-10.39,6.15-14.41,4.08-4.01,8.99-6.02,14.72-6.02s10.51,2.02,14.56,6.07c4.06,4.05,6.1,8.91,6.1,14.59s-2.04,10.56-6.12,14.54c-4.1,3.99-9.05,5.99-14.85,5.99-5.13,0-9.73-1.77-13.81-5.33-4.49-3.93-6.74-9.07-6.74-15.44Zm6.04.08c0,4.39,1.48,8,4.42,10.83,2.93,2.83,6.32,4.25,10.16,4.25,4.17,0,7.68-1.44,10.55-4.32,2.86-2.92,4.3-6.47,4.3-10.65s-1.41-7.79-4.24-10.65c-2.81-2.88-6.3-4.32-10.44-4.32s-7.63,1.44-10.47,4.32c-2.85,2.85-4.27,6.36-4.27,10.55Z"/>
          </g>
        </g>
      </g>
    </g>
  </g>
</svg>