<?xml version="1.0" encoding="UTF-8"?>
<svg xmlns="http://www.w3.org/2000/svg" xmlns:xlink="http://www.w3.org/1999/xlink" viewBox="0 0 526.72 747.62">
  <defs>
    <style>
      .cls-1 {
        fill: url(#Degradado_sin_nombre_4);
        mix-blend-mode: multiply;
      }

      .cls-2 {
        fill: #fff;
      }

      .cls-3 {
        isolation: isolate;
      }

      .cls-4 {
        clip-path: url(#clippath-1);
      }

      .cls-5 {
        fill: #b0b0b0;
      }

      .cls-6 {
        clip-path: url(#clippath);
      }

      .cls-7 {
        fill: none;
      }

      .cls-8 {
        fill: #874d00;
      }

      .cls-9 {
        fill: #f7b033;
      }
    </style>
    <radialGradient id="Degradado_sin_nombre_4" data-name="Degradado sin nombre 4" cx="264.57" cy="261.87" fx="264.57" fy="261.87" r="391.35" gradientUnits="userSpaceOnUse">
      <stop offset="0" stop-color="#fff" stop-opacity="0"/>
      <stop offset="1" stop-color="#b06b0e"/>
    </radialGradient>
    <clipPath id="clippath">
      <path class="cls-7" d="m525.87,262.93c0,145.21-117.73,262.94-262.94,262.94S0,408.14,0,262.93,117.73,0,262.94,0s262.94,117.72,262.94,262.93Z"/>
    </clipPath>
    <clipPath id="clippath-1">
      <path class="cls-7" d="m526.72,262.56c0,144.24-116.94,261.19-261.19,261.19S4.37,406.8,4.37,262.56,121.3,1.4,265.54,1.4s261.19,116.93,261.19,261.17Z"/>
    </clipPath>
  </defs>
  <g class="cls-3">
    <g id="Layer_2" data-name="Layer 2">
      <g id="Capa_4" data-name="Capa 4">
        <g>
          <g>
            <circle class="cls-9" cx="264.57" cy="261.87" r="260.42"/>
            <circle class="cls-1" cx="264.57" cy="261.87" r="260.42"/>
            <path class="cls-8" d="m448.71,77.73c73.91,72.11,97.06,188.94,56.91,283.99-70.67,171.95-294.78,216.82-426.25,85.35C-52.11,315.61-7.23,91.48,164.72,20.81c95.05-40.14,211.89-17,283.99,56.92h0Zm0,0C376.58,4.12,259.77-19.03,165.08,21.69-4.74,92.16-48.96,315.3,81.49,444.96c129.65,130.45,352.81,86.24,423.27-83.59,40.71-94.68,17.58-211.5-56.04-283.63h0Z"/>
          </g>
          <g class="cls-6">
            <g class="cls-4">
              <g>
                <g>
                  <path class="cls-2" d="m245.72,169.34c-.27-.56-.63-.95-1.03-1.2-1.64-21.34-1.85-43.59-11.47-60.44-3.47-6.03-7.76-10.14-11.98-14.15-11.19-10.65-22.45-21.36-34.36-28.23-1.13,17.12-.66,34.8,1.37,52.08.19,1.57.4,3.2.95,4.5.74,1.76,1.93,2.59,3.05,3.34,8.44,5.64,16.89,11.69,24.54,20.65,6.77,7.94,13.48,19.75,20.93,26.55-.46,1.16-.55,2.37-.04,3.42,27.38,56.53,33.36,121.24,40.07,182.86.7,6.45,1.39,12.91,2.07,19.37-8.17-17.95-13.95-39.76-27.75-49.11-4.4-2.95-8.96-3.86-13.44-4.73-11.89-2.32-23.86-4.65-35.37-3.48,3.51,14.62,8.47,28.79,14.61,41.74.56,1.18,1.15,2.39,1.94,3.14,1.06,1.01,2.25,1.02,3.36.99,8.35-.2,16.82-.08,25.38,2.88,10.05,3.48,21.78,12.57,31.35,9.31,2.32,22.04,4.48,44.11,6.37,66.21-7.22-16.98-13.13-36.11-25.82-44.7-4.4-2.95-8.96-3.86-13.44-4.73-11.89-2.32-23.86-4.65-35.37-3.48,3.51,14.62,8.47,28.79,14.61,41.74.56,1.18,1.15,2.39,1.94,3.14,1.06,1.01,2.25,1.02,3.36.99,8.35-.2,16.82-.08,25.38,2.88,9.52,3.29,20.54,11.63,29.81,9.74,3.18,38,5.53,76.07,6.47,114.16.16,6.49,8.9,2.43,8.78-2.36-1.72-69.59-8.02-139.1-15.55-208.28-6.8-62.36-13.04-127.6-40.74-184.81Z"/>
                  <path class="cls-2" d="m296.08,570.46c-2.35,0-5.06-1.46-5.17-5.62-.85-34.35-2.9-70.89-6.27-111.64-6.39.27-12.96-2.97-19.38-6.1-3.2-1.56-6.22-3.04-9.08-4.03-8.37-2.89-16.73-2.95-24.57-2.76-1.21.02-3.23.08-5.02-1.63-1.04-1-1.74-2.38-2.43-3.82-6.23-13.16-11.2-27.35-14.77-42.19l-.62-2.57,2.63-.27c11.88-1.22,24.17,1.19,36.05,3.51,4.44.87,9.47,1.85,14.29,5.08,9.75,6.61,15.63,18.91,20.88,31.61-1.38-15.16-2.95-31.12-4.75-48.35-6.82.97-14.02-2.54-21.01-5.95-3.19-1.56-6.21-3.03-9.07-4.02-8.36-2.89-16.73-2.95-24.57-2.76-1.2.02-3.23.08-5.02-1.63-1.05-1.01-1.75-2.38-2.43-3.82-6.23-13.15-11.2-27.34-14.77-42.18l-.62-2.57,2.63-.27c11.88-1.22,24.17,1.19,36.05,3.51,4.43.87,9.46,1.85,14.28,5.08,10.76,7.29,16.8,21.5,22.49,35.55-.13-1.21-.26-2.42-.39-3.64l-.92-8.46c-6.39-59.02-12.99-120.05-38.94-173.65-.54-1.13-.7-2.39-.47-3.7-4.29-4.19-8.29-9.81-12.16-15.25-2.74-3.84-5.32-7.47-7.93-10.53-7.6-8.91-16.05-14.88-24.06-20.23-1.14-.77-2.87-1.92-3.9-4.37-.65-1.55-.9-3.31-1.11-5.13-2.06-17.5-2.53-35.16-1.39-52.5l.24-3.71,3.22,1.86c12.19,7.03,23.68,17.98,34.8,28.56,4.29,4.08,8.72,8.31,12.38,14.67,8.61,15.08,9.91,34.3,11.17,52.89.17,2.53.34,5.06.53,7.58.34.38.64.81.87,1.31h0c26.85,55.44,33.64,118.05,40.2,178.59l.76,6.98c6.66,61.16,13.72,133.75,15.57,208.47.11,4.37-4.34,8-8.1,8.09-.05,0-.09,0-.14,0Zm-6.31-111.28c3.07,38.3,4.96,72.91,5.77,105.55.03,1.12.3,1.12.57,1.11,1.49-.04,3.63-1.81,3.59-3.36-1.84-74.55-8.88-147.02-15.54-208.09l-.76-6.98c-6.52-60.15-13.27-122.35-39.77-177.07h0c-.04-.07-.11-.21-.19-.26l-.98-.62-.09-1.15c-.22-2.84-.41-5.7-.61-8.56-1.22-18.07-2.48-36.76-10.57-50.91-3.33-5.78-7.51-9.77-11.56-13.62-9.91-9.44-20.13-19.17-30.69-25.93-.82,15.83-.29,31.9,1.59,47.83.14,1.19.33,2.81.78,3.88.46,1.09,1.14,1.6,2.21,2.32,8.28,5.53,17.03,11.71,25.01,21.07,2.74,3.22,5.51,7.1,8.18,10.85,4.05,5.68,8.23,11.55,12.55,15.5l1.18,1.07-.58,1.48c-.15.37-.35,1.07-.11,1.57,26.3,54.31,32.95,115.75,39.38,175.16l.92,8.45c.63,5.74,1.24,11.49,1.85,17.24h0s.19,1.85.19,1.85c0,.09.02.19.03.28l1.49,14.15-.03-.07c1.93,18.91,3.57,36.33,4.99,52.92l.26,2.99h0s.98,11.44.98,11.44l-.05-.11Zm-53.51-23.55c6.87,0,14.06.53,21.44,3.08,3.13,1.08,6.42,2.69,9.6,4.24,6.19,3.02,12.57,6.13,17.95,5.58l-1.09-2.57c-1.19-2.81-2.35-5.67-3.51-8.54-5.63-13.95-11.46-28.37-21.48-35.15-4.04-2.7-8.39-3.56-12.59-4.38-10.63-2.08-21.6-4.22-32.03-3.65,3.44,13.58,8.07,26.57,13.8,38.66.37.78.93,1.96,1.45,2.46.32.31.65.38,1.7.35,1.56-.04,3.15-.07,4.76-.07Zm-8.4-71.36c6.87,0,14.08.53,21.45,3.08,3.13,1.08,6.41,2.69,9.59,4.24,6.2,3.02,12.58,6.15,17.97,5.57-1.6-3.64-3.13-7.43-4.62-11.1-5.63-13.94-11.46-28.36-21.47-35.14-4.04-2.71-8.39-3.56-12.59-4.38-10.64-2.08-21.61-4.22-32.03-3.66,3.43,13.58,8.07,26.57,13.8,38.66.37.78.93,1.96,1.45,2.46.32.31.64.39,1.7.35,1.56-.04,3.14-.07,4.74-.07Z"/>
                </g>
                <g>
                  <path class="cls-2" d="m289.53,180.35c4.81-11.78,10.99-21.36,17.25-30.57.83-1.22,1.71-2.56,1.97-4.49.2-1.43.02-2.99-.17-4.49-2.07-16.42-5.63-32.43-10.49-47.16-9.08,12.03-16.73,27.16-24.32,42.2-2.86,5.67-5.76,11.45-7.5,18.55-5.49,22.64,1.61,45.5,4.68,68.16,8.86-8.22,12.89-28.27,18.58-42.21Z"/>
                  <path class="cls-2" d="m269.25,227.28l-.6-4.41c-.73-5.44-1.72-11-2.68-16.38-3.06-17.21-6.22-35-1.95-52.64,1.82-7.42,4.8-13.33,7.69-19.05,7.52-14.9,15.29-30.31,24.53-42.55l2.66-3.52,1.38,4.19c4.93,14.94,8.49,30.95,10.59,47.59.22,1.73.39,3.41.17,5.09-.35,2.53-1.51,4.24-2.35,5.48-5.97,8.79-12.21,18.35-17.02,30.14h0c-1.66,4.06-3.15,8.58-4.73,13.38-3.81,11.54-7.74,23.46-14.42,29.65l-3.26,3.03Zm28.02-128.58c-7.87,11.28-14.75,24.93-21.44,38.18-2.77,5.49-5.63,11.16-7.32,18.06-4.04,16.69-.97,34,2.01,50.73.67,3.77,1.36,7.63,1.96,11.49,4.11-6.01,7.12-15.13,10.06-24.01,1.54-4.66,3.12-9.47,4.84-13.68,4.98-12.21,11.37-22.01,17.48-31,.82-1.2,1.41-2.16,1.6-3.51.15-1.12.01-2.42-.17-3.89-1.86-14.75-4.89-28.98-9.01-42.39Z"/>
                </g>
                <g>
                  <path class="cls-2" d="m194.02,221.29c1.06,1.01,2.25,1.02,3.36.99,8.35-.2,16.82-.08,25.38,2.88,10.13,3.51,21.96,12.72,31.58,9.25-8.33-18.07-14.08-40.33-28.06-49.79-4.4-2.95-8.96-3.86-13.44-4.73-11.89-2.32-23.86-4.65-35.37-3.48,3.51,14.62,8.47,28.79,14.61,41.74.56,1.18,1.15,2.39,1.94,3.14Z"/>
                  <path class="cls-2" d="m249.73,237.5c-6.11,0-12.45-3.1-18.64-6.13-3.2-1.56-6.22-3.04-9.08-4.03-8.36-2.89-16.72-2.95-24.57-2.76-1.21.02-3.24.08-5.02-1.63h0c-1.05-1.01-1.75-2.38-2.43-3.82-6.23-13.15-11.2-27.34-14.77-42.19l-.62-2.57,2.63-.27c11.89-1.22,24.17,1.19,36.05,3.51,4.43.87,9.46,1.85,14.28,5.08,11.19,7.58,17.28,22.66,23.17,37.24,1.82,4.52,3.71,9.18,5.7,13.5l1.05,2.29-2.37.86c-1.77.64-3.57.91-5.4.91Zm-47.65-17.6c6.86,0,14.06.53,21.43,3.08,3.13,1.08,6.42,2.69,9.6,4.25,6.19,3.03,12.56,6.14,17.96,5.57-1.61-3.65-3.14-7.44-4.63-11.13-5.63-13.94-11.45-28.36-21.47-35.14-4.04-2.71-8.39-3.56-12.59-4.38-10.64-2.08-21.6-4.22-32.03-3.65,3.44,13.58,8.08,26.57,13.8,38.65.37.78.93,1.96,1.45,2.46h0c.32.31.64.37,1.7.35,1.56-.04,3.15-.07,4.76-.07Z"/>
                </g>
                <g>
                  <path class="cls-2" d="m243.66,257.62c-4.4-2.95-8.96-3.86-13.44-4.73-11.89-2.32-23.86-4.65-35.37-3.48,3.51,14.62,8.47,28.79,14.61,41.74.56,1.18,1.15,2.39,1.94,3.14,1.06,1.01,2.25,1.02,3.36.99,8.35-.2,16.82-.08,25.38,2.88,10.13,3.51,21.96,12.72,31.58,9.25-8.33-18.07-14.08-40.33-28.06-49.79Z"/>
                  <path class="cls-2" d="m267.1,310.5c-6.1,0-12.45-3.1-18.64-6.12-3.2-1.56-6.22-3.04-9.09-4.03-8.36-2.89-16.73-2.96-24.57-2.76-1.21.02-3.23.08-5.02-1.63-1.05-1-1.74-2.38-2.43-3.82-6.23-13.15-11.2-27.35-14.77-42.19l-.62-2.57,2.63-.27c11.88-1.22,24.17,1.19,36.05,3.51,4.44.87,9.47,1.85,14.29,5.08h0c11.18,7.58,17.27,22.65,23.16,37.23,1.82,4.52,3.71,9.19,5.7,13.51l1.05,2.29-2.37.86c-1.77.64-3.57.91-5.4.91Zm-47.67-17.6c6.87,0,14.08.53,21.45,3.08,3.13,1.08,6.42,2.69,9.61,4.25,6.19,3.02,12.57,6.13,17.96,5.57-1.61-3.65-3.14-7.44-4.63-11.13-5.63-13.94-11.45-28.34-21.46-35.13-4.05-2.71-8.39-3.56-12.6-4.38-10.64-2.08-21.61-4.22-32.03-3.65,3.43,13.58,8.07,26.57,13.8,38.66.37.78.93,1.96,1.45,2.46.32.31.62.38,1.7.35,1.56-.04,3.14-.07,4.74-.07Z"/>
                </g>
                <g>
                  <path class="cls-2" d="m284.65,225.16c-7.82,21.08-3.24,45.31-2.62,68.41,9.62-6.04,15.73-24.9,22.83-37.34,6-10.51,13.12-18.53,20.28-26.16.95-1.01,1.96-2.13,2.43-3.98.35-1.37.34-2.95.31-4.47-.3-16.7-2.12-33.34-5.35-49.02-10.25,9.75-19.4,22.91-28.49,35.99-3.43,4.93-6.91,9.97-9.38,16.57Z"/>
                  <path class="cls-2" d="m279.83,297.68l-.11-4.05c-.15-5.54-.53-11.27-.91-16.8-1.19-17.71-2.43-36.02,3.67-52.47h0c2.6-6.94,6.34-12.33,9.65-17.08,9.02-12.98,18.34-26.4,28.8-36.35l3.02-2.87.84,4.08c3.28,15.89,5.09,32.53,5.4,49.44.03,1.76.03,3.47-.38,5.08-.63,2.49-2.04,4-2.98,5-6.82,7.27-13.98,15.24-19.96,25.72-2.06,3.61-4.01,7.72-6.08,12.08-5.01,10.55-10.18,21.46-17.53,26.07l-3.43,2.15Zm6.99-71.71c-5.76,15.52-4.56,33.32-3.39,50.54.27,4.03.55,8.16.74,12.27,4.67-4.92,8.61-13.23,12.45-21.31,2.01-4.24,4.1-8.63,6.24-12.39,6.23-10.92,13.6-19.12,20.61-26.59.93-.99,1.56-1.73,1.87-2.96.26-1.06.26-2.43.24-3.87-.27-15.14-1.77-30.04-4.47-44.37-8.93,9.27-17.17,21.12-25.16,32.63-3.3,4.75-6.72,9.67-9.11,16.06Z"/>
                </g>
                <g>
                  <path class="cls-2" d="m292.89,307.38c-7.53,21.32-2.61,45.39-1.67,68.47,9.54-6.34,15.38-25.38,22.3-38.03,5.85-10.69,12.86-18.93,19.92-26.77.94-1.04,1.93-2.19,2.37-4.05.33-1.38.3-2.96.25-4.48-.53-16.69-2.58-33.27-6.03-48.84-10.11,10.07-19.08,23.5-27.99,36.86-3.36,5.03-6.77,10.17-9.15,16.85Z"/>
                  <path class="cls-2" d="m289.08,380.05l-.17-4.1c-.22-5.53-.69-11.25-1.14-16.77-1.44-17.67-2.93-35.94,2.94-52.56h0c2.5-7.01,6.01-12.27,9.4-17.36,8.84-13.25,17.97-26.95,28.28-37.21l2.98-2.96.91,4.1c3.5,15.78,5.54,32.36,6.08,49.27.06,1.75.07,3.46-.31,5.08-.59,2.5-1.98,4.04-2.9,5.07-6.72,7.47-13.76,15.66-19.6,26.34-2.01,3.67-3.9,7.85-5.91,12.27-4.85,10.69-9.87,21.75-17.14,26.58l-3.42,2.27Zm5.99-71.89c-5.54,15.69-4.09,33.46-2.69,50.64.33,4,.66,8.1.91,12.18,4.6-5.07,8.43-13.49,12.15-21.69,1.95-4.3,3.98-8.76,6.07-12.58,6.08-11.11,13.32-19.54,20.22-27.21.92-1.02,1.55-1.78,1.84-3.04.25-1.07.23-2.44.19-3.87-.48-15.12-2.19-29.95-5.08-44.17-8.8,9.54-16.88,21.65-24.71,33.39-3.24,4.86-6.59,9.88-8.89,16.35Z"/>
                </g>
                <g>
                  <path class="cls-2" d="m345.29,386.39c.39-1.35.43-2.93.45-4.45.21-16.71-1.09-33.45-3.84-49.33-10.54,9.05-20.09,21.58-29.57,34.03-3.57,4.69-7.21,9.49-9.88,15.92-8.46,20.53-4.63,45.04-4.72,68.16,9.8-5.39,16.48-23.82,23.95-35.76,6.31-10.09,13.68-17.62,21.07-24.76.98-.95,2.03-2,2.55-3.81Z"/>
                  <path class="cls-2" d="m295.4,454.64l.02-3.93c.02-5.54-.19-11.29-.39-16.84-.65-17.78-1.32-36.15,5.29-52.18,2.82-6.77,6.73-11.91,10.18-16.44,9.41-12.36,19.14-25.14,29.9-34.38l3.09-2.65.69,4.01c2.79,16.09,4.09,32.83,3.88,49.75-.02,1.76-.08,3.47-.54,5.05h0c-.71,2.47-2.18,3.89-3.16,4.83-7.03,6.79-14.42,14.26-20.71,24.32-2.16,3.46-4.24,7.44-6.44,11.65-5.33,10.22-10.85,20.78-18.36,24.91l-3.44,1.89Zm44.9-117.48c-9.21,8.65-17.8,19.94-26.14,30.89-3.44,4.52-7,9.19-9.58,15.41-6.22,15.1-5.57,32.97-4.94,50.25.15,4.09.3,8.28.37,12.44,4.81-4.58,9.01-12.62,13.09-20.44,2.14-4.1,4.36-8.35,6.62-11.96,6.57-10.51,14.18-18.21,21.42-25.2.94-.91,1.59-1.6,1.93-2.78.3-1.04.34-2.41.36-3.84.19-15.19-.86-30.22-3.12-44.75Z"/>
                </g>
                <g>
                  <path class="cls-2" d="m443.15,268.07c.03-.91-.13-1.59-.41-2.11,5.86-13.58,12.55-27.24,12.03-40.61-.21-4.96-1.57-8.97-2.92-12.91-3.57-10.43-7.18-20.92-12.46-29.2-6.35,10.47-11.88,21.82-16.29,33.43-.4,1.06-.8,2.16-.89,3.16-.11,1.35.37,2.28.83,3.12,3.49,6.35,6.85,12.97,8.73,21.16,1.6,6.96,2.01,16.13,4.22,22.84-.94.98-1.6,2.19-1.64,3.46-1.02,31.81-10.01,62.61-20.93,92.57.84-13.8,4.08-29.04-1.45-39.27-1.81-3.31-4.4-5.39-6.95-7.42-6.76-5.39-13.58-10.81-21.25-13.85-2.59,10.42-4.12,21.02-4.5,31.24-.03.93-.06,1.89.19,2.63.33.99,1.09,1.38,1.8,1.73,5.35,2.62,10.68,5.49,15.12,10.19,5.15,5.45,9.54,14.88,16.52,16.17-4.75,12.95-9.84,25.74-14.79,38.4-.93,2.38-1.87,4.76-2.81,7.14.93-13.53,3.88-28.27-1.51-38.25-1.81-3.31-4.4-5.39-6.95-7.42-6.76-5.39-13.58-10.81-21.25-13.85-2.59,10.42-4.12,21.02-4.5,31.24-.03.93-.06,1.89.19,2.63.33.99,1.09,1.38,1.8,1.73,5.35,2.62,10.68,5.49,15.12,10.19,5.07,5.35,9.39,14.56,16.17,16.1-5.55,14.07-11.19,28.12-16.99,42.09,1.1-12.52,3.14-25.63-1.79-34.75-1.81-3.31-4.4-5.39-6.95-7.42-6.76-5.39-13.58-10.81-21.25-13.85-2.59,10.42-4.12,21.02-4.5,31.24-.03.93-.06,1.89.19,2.63.33.99,1.09,1.38,1.8,1.73,5.35,2.62,10.68,5.49,15.12,10.19,4.78,5.06,8.91,13.54,15.06,15.77-10.47,25-21.46,49.79-33.35,74.13-3.03,6.2,4.67,7.7,7.25,2.43,21.29-43.56,39.8-88.51,57.45-133.65,16.86-43.12,35.21-87.86,36.72-134.75Z"/>
                  <path class="cls-2" d="m344.24,542c-1.93,0-3.64-.85-4.63-2.32-.69-1.03-1.61-3.26.05-6.64,10.57-21.63,21.19-45.2,32.45-71.98-3.7-2.18-6.59-6.07-9.39-9.85-1.5-2.02-2.91-3.93-4.37-5.47-4.26-4.5-9.48-7.26-14.46-9.7-.81-.4-2.32-1.13-2.97-3.07-.37-1.09-.36-2.26-.31-3.46.39-10.42,1.92-21.09,4.56-31.71l.64-2.57,2.46.98c8.02,3.18,15.04,8.78,21.84,14.19,2.57,2.05,5.49,4.38,7.54,8.12,3.24,5.98,3.7,13.39,3.33,21.11,3.3-8.12,6.75-16.72,10.4-25.97-4.22-2-7.38-6.27-10.45-10.42-1.49-2.02-2.91-3.92-4.36-5.46-4.27-4.51-9.48-7.26-14.46-9.7-.81-.4-2.32-1.14-2.97-3.07-.37-1.09-.36-2.26-.31-3.46.39-10.43,1.92-21.1,4.56-31.71l.64-2.57,2.46.98c8.02,3.19,15.04,8.78,21.84,14.19,2.57,2.05,5.49,4.38,7.54,8.12,3.59,6.63,3.77,15.02,3.18,23.65,3.64-9.27,7.37-18.81,10.9-28.34-4.4-1.92-7.66-6.31-10.82-10.59-1.5-2.02-2.91-3.93-4.37-5.47-4.27-4.51-9.49-7.26-14.46-9.7-.81-.4-2.32-1.14-2.97-3.07-.37-1.09-.36-2.26-.31-3.46.39-10.43,1.92-21.1,4.56-31.71l.64-2.57,2.46.97c8.02,3.19,15.04,8.78,21.84,14.19,2.57,2.05,5.49,4.38,7.54,8.12,3.41,6.3,3.75,14.19,3.26,22.35,7.46-22.59,13.92-47.99,14.78-74.62.04-1.34.51-2.67,1.38-3.89-1.12-3.87-1.75-8.31-2.35-12.61-.47-3.31-.91-6.43-1.54-9.2-1.86-8.07-5.22-14.58-8.51-20.57-.48-.87-1.28-2.33-1.11-4.42.11-1.28.55-2.53,1.03-3.8,4.47-11.79,10.01-23.17,16.47-33.81l1.93-3.17,2,3.13c5.45,8.54,9.13,19.29,12.7,29.69,1.32,3.85,2.82,8.21,3.05,13.56.49,12.55-5.05,25.23-10.41,37.49-.48,1.1-.96,2.19-1.43,3.28.18.65.25,1.35.23,2.11h0c-1.45,45.15-18.29,88.09-34.57,129.62l-2.31,5.9c-15.59,39.87-34.62,86.95-57.53,133.82-1.27,2.59-3.7,4.31-6.35,4.5-.15.01-.31.02-.46.02Zm29.57-73.11c-10.35,24.39-20.2,46.1-30,66.17-.57,1.18-.5,1.83-.36,2.03.13.2.51.32.94.28.79-.05,1.87-.59,2.52-1.91,22.83-46.72,41.82-93.69,57.38-133.48l2.31-5.91c16.14-41.16,32.82-83.73,34.25-128.08h0c.02-.56-.08-.84-.14-.95l-.52-.98.44-1.02c.6-1.39,1.2-2.77,1.81-4.16,5.15-11.78,10.48-23.97,10.03-35.45-.2-4.67-1.52-8.52-2.8-12.25-3.02-8.81-6.13-17.89-10.27-25.42-5.47,9.43-10.21,19.41-14.12,29.72-.29.76-.68,1.8-.74,2.53-.05.64.13,1.04.55,1.82,3.44,6.27,6.97,13.11,8.96,21.75.68,2.96,1.16,6.34,1.62,9.6.64,4.57,1.31,9.29,2.55,13.04l.43,1.32-.96,1c-.62.65-.98,1.36-1,1.94-1.09,33.81-10.98,65.49-20.65,92.14h0l-.34.93c-.03.07-.05.14-.08.22l-5.45,14.95.03-.5c-2.42,6.33-4.89,12.6-7.3,18.76l-5.36,13.64h0l-5.54,14.08v-.11c-4.39,11.04-8.5,21.15-12.46,30.67l-5.75,13.84.02-.22Zm-24.8-67.31c-2.18,9.43-3.45,18.87-3.79,28.11-.02.5-.05,1.43.07,1.8.02.07.13.15.63.4,5.36,2.63,10.99,5.61,15.78,10.68,1.65,1.74,3.21,3.85,4.72,5.89,2.63,3.55,5.34,7.2,8.4,8.83l.27-3.09c.13-1.5.28-3,.42-4.5,1.02-10.58,2.07-21.53-1.94-28.95-1.6-2.92-3.91-4.77-6.36-6.72-5.8-4.62-11.77-9.38-18.21-12.44Zm18.2-47.95c-2.18,9.42-3.45,18.87-3.79,28.11-.02.5-.05,1.43.07,1.8.02.07.13.15.63.4,5.35,2.62,10.99,5.6,15.78,10.67,1.65,1.74,3.21,3.85,4.72,5.89,2.64,3.56,5.35,7.22,8.42,8.84.18-2.53.43-5.11.67-7.62,1.02-10.58,2.07-21.52-1.94-28.94-1.6-2.92-3.91-4.77-6.36-6.72-5.8-4.62-11.77-9.38-18.21-12.44Zm18.18-47.96c-2.18,9.42-3.45,18.87-3.79,28.11-.02.5-.05,1.43.07,1.8.02.07.13.15.63.4,5.35,2.62,10.99,5.6,15.78,10.67,1.65,1.74,3.21,3.85,4.72,5.89,2.64,3.56,5.35,7.22,8.43,8.84.18-2.53.43-5.1.67-7.6,1.02-10.59,2.07-21.54-1.94-28.96-1.6-2.92-3.91-4.77-6.36-6.72-5.8-4.62-11.77-9.38-18.21-12.44Z"/>
                </g>
                <g>
                  <path class="cls-2" d="m471.17,256.54c-3.68,2.65-7.42,5.35-10.86,9.28-10.93,12.53-13.97,29.34-19.5,44.7,8.32-2.28,17.48-13.65,25.67-20.61,6.92-5.88,14-9.91,21-13.67.93-.5,1.93-1.06,2.73-2.2.6-.84,1-1.89,1.37-2.9,4.1-11.08,7.12-22.39,8.89-33.32-9.71,4.62-19.54,11.69-29.3,18.71Z"/>
                  <path class="cls-2" d="m437.13,313.92l1.51-4.19c1.32-3.67,2.53-7.51,3.69-11.23,3.75-11.97,7.63-24.34,16.24-34.21,3.65-4.16,7.69-7.07,11.26-9.63h0c9.7-6.98,19.72-14.19,29.66-18.92l3.98-1.89-.71,4.35c-1.81,11.13-4.84,22.48-9.01,33.75-.43,1.15-.9,2.37-1.65,3.43-1.14,1.62-2.58,2.39-3.52,2.9-6.65,3.57-13.71,7.56-20.59,13.4-2.37,2.01-4.79,4.37-7.37,6.88-6.27,6.11-12.76,12.43-19.19,14.19l-4.29,1.18Zm35.39-55.51c-3.53,2.54-7.18,5.17-10.48,8.93-7.97,9.13-11.7,21.03-15.31,32.55-.65,2.07-1.31,4.17-2,6.28,4.07-2.57,8.41-6.8,12.64-10.92,2.51-2.45,5.11-4.98,7.6-7.09,7.23-6.13,14.53-10.25,21.4-13.95.86-.46,1.46-.82,1.94-1.49.42-.6.76-1.46,1.09-2.36,3.5-9.46,6.18-18.98,7.98-28.35-8.26,4.47-16.68,10.53-24.86,16.42h0Z"/>
                </g>
                <g>
                  <path class="cls-2" d="m394.32,286.1c5.35,2.62,10.68,5.49,15.12,10.19,5.26,5.56,9.71,15.29,16.95,16.26.68-14.19,4.37-30.17-1.36-40.77-1.81-3.31-4.4-5.39-6.95-7.42-6.76-5.39-13.58-10.81-21.25-13.85-2.59,10.42-4.12,21.02-4.5,31.24-.03.93-.06,1.89.19,2.63.33.99,1.09,1.38,1.8,1.73Z"/>
                  <path class="cls-2" d="m428.58,315.17l-2.5-.34c-6.06-.81-10.07-6.24-13.95-11.48-1.5-2.03-2.91-3.94-4.37-5.48-4.27-4.51-9.48-7.26-14.46-9.7h0c-.81-.4-2.32-1.13-2.98-3.07-.37-1.09-.36-2.25-.31-3.45.39-10.43,1.92-21.1,4.57-31.72l.64-2.57,2.46.97c8.02,3.19,15.04,8.78,21.84,14.2,2.57,2.05,5.49,4.37,7.54,8.12,4.69,8.66,3.57,20.32,2.48,31.59-.33,3.45-.68,7.02-.84,10.4l-.12,2.52Zm-30.15-61.46c-2.18,9.43-3.45,18.87-3.79,28.11-.02.5-.05,1.43.07,1.8.03.07.12.15.63.4h0c5.36,2.62,10.99,5.61,15.78,10.68,1.66,1.75,3.22,3.87,4.73,5.91,2.63,3.56,5.34,7.22,8.41,8.84.18-2.54.43-5.12.67-7.64,1.02-10.58,2.07-21.52-1.94-28.94-1.6-2.92-3.91-4.77-6.36-6.72-5.8-4.62-11.77-9.38-18.21-12.44Z"/>
                </g>
                <g>
                  <path class="cls-2" d="m448.64,316.68c-11.9,10.77-16.98,27.62-24.2,42.45,8.09-.66,18.17-10.59,26.76-16.12,7.26-4.68,14.41-7.41,21.46-9.88.94-.33,1.95-.7,2.85-1.72.67-.75,1.19-1.76,1.67-2.73,5.31-10.68,9.64-21.81,12.76-32.8-9.7,2.8-19.84,8.11-29.9,13.4-3.79,1.99-7.66,4.03-11.4,7.4Z"/>
                  <path class="cls-2" d="m420.59,361.76l1.77-3.64c1.73-3.55,3.37-7.29,4.95-10.92,5.11-11.67,10.39-23.74,19.77-32.24h0c3.99-3.59,8.17-5.79,11.87-7.73,10.01-5.26,20.36-10.7,30.33-13.58l4-1.15-1.14,4.01c-3.17,11.18-7.52,22.35-12.92,33.2-.58,1.16-1.17,2.29-2.01,3.23-1.33,1.5-2.82,2.02-3.81,2.37-6.67,2.34-13.79,5.01-20.97,9.64-2.47,1.59-5.05,3.55-7.79,5.62-6.72,5.09-13.67,10.35-20.03,10.86l-4.04.33Zm29.6-43.36c-8.65,7.83-13.73,19.44-18.64,30.66-.94,2.16-1.9,4.35-2.89,6.54,4.11-1.81,8.72-5.3,13.22-8.71,2.68-2.03,5.46-4.13,8.08-5.82,7.61-4.9,15.01-7.69,21.95-10.12.84-.29,1.39-.51,1.88-1.07.46-.52.89-1.35,1.33-2.22,4.6-9.25,8.42-18.72,11.37-28.23-8.3,2.94-16.95,7.49-25.36,11.91-3.62,1.9-7.37,3.87-10.93,7.07Z"/>
                </g>
                <g>
                  <path class="cls-2" d="m426.77,371.45c-11.79,11.02-16.61,27.89-23.62,42.81,8.13-.87,18.1-11,26.65-16.74,7.22-4.84,14.38-7.75,21.43-10.39.94-.35,1.95-.75,2.84-1.78.66-.77,1.16-1.78,1.63-2.76,5.16-10.74,9.33-21.92,12.27-32.92-9.72,3.04-19.82,8.6-29.86,14.12-3.78,2.08-7.64,4.21-11.34,7.66Z"/>
                  <path class="cls-2" d="m399.31,417l1.75-3.72c1.67-3.57,3.26-7.33,4.79-10.97,4.94-11.73,10.04-23.85,19.34-32.54h0c3.94-3.67,7.94-5.87,11.8-7.99,9.99-5.5,20.33-11.18,30.29-14.3l4.01-1.25-1.09,4.06c-3,11.19-7.18,22.4-12.42,33.32-.56,1.17-1.14,2.3-1.97,3.26-1.3,1.51-2.79,2.07-3.78,2.44-6.68,2.51-13.8,5.35-20.96,10.15-2.46,1.65-5.03,3.66-7.75,5.79-6.67,5.23-13.57,10.64-19.95,11.32l-4.08.44Zm29.03-43.85c-8.58,8.02-13.48,19.68-18.23,30.95-.9,2.15-1.83,4.33-2.77,6.51,4.11-1.91,8.69-5.5,13.15-9,2.66-2.09,5.42-4.25,8.03-6,7.57-5.07,14.97-8.04,21.91-10.64.85-.32,1.4-.55,1.9-1.13.46-.53.88-1.37,1.3-2.25,4.46-9.28,8.12-18.77,10.93-28.28-8.29,3.14-16.93,7.89-25.33,12.51-3.62,1.99-7.36,4.05-10.88,7.32Z"/>
                </g>
                <g>
                  <path class="cls-2" d="m408.05,422.21c-12.12,10.21-17.77,27-25.44,41.6,7.98-.18,18.28-9.65,26.95-14.76,7.32-4.31,14.47-6.65,21.5-8.74.93-.28,1.94-.6,2.87-1.57.69-.73,1.23-1.71,1.75-2.67,5.64-10.51,10.33-21.54,13.82-32.5-9.65,2.26-19.83,7.05-29.93,11.81-3.81,1.79-7.69,3.63-11.5,6.83Z"/>
                  <path class="cls-2" d="m378.73,466.21l1.83-3.47c1.83-3.49,3.59-7.19,5.29-10.77,5.48-11.53,11.14-23.46,20.71-31.53h0c4.07-3.41,8.28-5.4,12-7.15,10.06-4.74,20.47-9.64,30.39-11.97l3.96-.93-1.24,3.88c-3.55,11.14-8.25,22.21-13.98,32.89-.62,1.15-1.24,2.26-2.11,3.17-1.38,1.45-2.89,1.9-3.89,2.2-6.65,1.97-13.75,4.26-20.98,8.52-2.49,1.46-5.1,3.29-7.87,5.23-6.82,4.77-13.88,9.7-20.19,9.85l-3.92.09Zm30.8-42.24c-8.81,7.42-14.25,18.89-19.51,29.97-1.03,2.17-2.08,4.38-3.16,6.58,4.1-1.58,8.78-4.85,13.34-8.04,2.72-1.9,5.53-3.87,8.18-5.42,7.69-4.52,15.09-6.91,22.01-8.96.82-.24,1.35-.43,1.85-.95.51-.54,1.02-1.48,1.39-2.17,4.9-9.14,9.03-18.56,12.31-28.07-8.27,2.48-16.96,6.58-25.41,10.56-3.63,1.71-7.38,3.48-11,6.5Z"/>
                </g>
                <g>
                  <path class="cls-2" d="m178.11,465.14c5.53-2.8,9.37-10.62,13.83-15.41,4.4-4.73,9.68-7.63,15-10.29.71-.35,1.46-.75,1.78-1.75.24-.74.21-1.7.17-2.63-.45-10.22-2.05-20.81-4.71-31.21-7.62,3.1-14.37,8.56-21.08,14-2.53,2.05-5.09,4.15-6.88,7.47-4.35,8.22-3.08,19.62-1.91,30.92-5.38-12.77-10.63-25.6-15.8-38.45,6.14-2.24,10.2-10.79,14.94-15.89,4.4-4.73,9.68-7.63,15-10.29.71-.35,1.46-.75,1.78-1.75.24-.74.21-1.7.17-2.63-.45-10.22-2.05-20.81-4.71-31.21-7.62,3.1-14.37,8.56-21.08,14-2.53,2.05-5.09,4.15-6.88,7.47-4.82,9.09-2.75,22.07-1.56,34.51-.63-1.57-1.27-3.14-1.89-4.71-4.89-12.27-9.92-24.66-14.65-37.19,6.37-2,10.49-10.83,15.34-16.04,4.4-4.73,9.68-7.63,15-10.29.71-.35,1.46-.75,1.78-1.75.24-.74.21-1.7.17-2.63-.45-10.22-2.05-20.81-4.71-31.21-7.62,3.1-14.37,8.56-21.08,14-2.53,2.05-5.09,4.15-6.88,7.47-4.95,9.35-2.62,22.81-1.46,35.56-11.01-29.81-20.02-60.44-21.27-92.15-.04-1.13-.44-1.79-1.02-2.11,1.63-6.45,2.04-14.5,3.44-20.76,1.82-8.2,5.12-14.84,8.55-21.22.46-.85.93-1.77.81-3.13-.09-1.01-.5-2.1-.91-3.16-4.47-11.58-10.07-22.89-16.47-33.32-5.2,8.31-8.72,18.83-12.2,29.28-1.31,3.94-2.64,7.96-2.82,12.92-.45,14.06,7.07,28.4,13.2,42.63-.8,1.09-1.31,2.3-1.27,3.44,1.82,46.11,20.09,90.06,36.9,132.4,7.27,18.3,14.69,36.56,22.37,54.71-6.62-13.32-12.37-27.61-23.21-36.65-3.82-3.16-7.7-4.98-11.51-6.75-10.11-4.69-20.28-9.41-29.92-11.61,3.56,10.93,8.31,21.94,14.01,32.41.52.95,1.07,1.94,1.76,2.66.93.97,1.93,1.28,2.87,1.55,7.02,2.04,14.16,4.33,21.49,8.59,8.52,4.96,18.64,14.09,26.54,14.54,10.71,25.13,21.93,50.04,34.06,74.49,2.34,4.72,10.14-2.29,8.03-6.52-11.78-23.75-22.7-47.94-33.13-72.33Z"/>
                  <path class="cls-2" d="m205.57,547.88c-1.88,0-3.51-.99-4.43-2.85-10.95-22.09-21.94-46.1-33.58-73.37-5.78-.93-12.1-5.29-18.23-9.53-2.77-1.91-5.38-3.71-7.87-5.16-7.24-4.21-14.33-6.44-20.97-8.37-1-.29-2.5-.73-3.89-2.17-.88-.91-1.5-2.01-2.12-3.15-5.79-10.64-10.56-21.68-14.17-32.79l-1.26-3.87,3.97.9c9.9,2.26,20.31,7.09,30.38,11.76,3.71,1.72,7.93,3.68,12.01,7.06,2.05,1.71,3.93,3.6,5.66,5.62-2.74-6.75-5.55-13.75-8.44-21.05l-2.27-5.71c-16.25-40.81-33.04-83.02-34.79-127.45-.05-1.21.29-2.48.97-3.73-.74-1.7-1.5-3.4-2.25-5.11-5.43-12.22-11.04-24.86-10.65-37.39.19-5.34,1.65-9.72,2.93-13.58,3.48-10.43,7.08-21.21,12.44-29.78l1.98-3.16,1.95,3.17c6.51,10.59,12.12,21.93,16.66,33.7.49,1.27.94,2.51,1.05,3.78.19,2.09-.6,3.55-1.07,4.43-3.23,6.01-6.54,12.55-8.33,20.62-.62,2.78-1.03,5.91-1.47,9.22-.46,3.48-.94,7.06-1.68,10.35.41.64.74,1.51.79,2.71,1.05,26.63,7.83,52.53,15.11,74.39-.22-6.87.4-13.4,3.26-18.79,2.02-3.77,4.91-6.12,7.46-8.19,6.73-5.46,13.69-11.1,21.66-14.34l2.45-1,.66,2.57c2.71,10.6,4.32,21.26,4.78,31.68.05,1.2.07,2.37-.29,3.45-.64,1.94-2.14,2.69-2.95,3.09-4.94,2.47-10.12,5.26-14.33,9.79-1.44,1.55-2.84,3.47-4.32,5.51-2.89,3.98-5.86,8.07-9.78,10.21,3.22,8.47,6.6,16.95,9.91,25.23-.34-7.37.16-14.41,3.2-20.16,2.02-3.77,4.91-6.12,7.46-8.18,6.73-5.46,13.69-11.11,21.66-14.34l2.45-1,.66,2.57c2.71,10.6,4.32,21.26,4.78,31.68.05,1.19.07,2.36-.29,3.45-.64,1.94-2.14,2.69-2.94,3.09-4.94,2.47-10.12,5.26-14.34,9.8-1.44,1.55-2.83,3.46-4.31,5.49-2.79,3.83-5.65,7.77-9.37,9.97,3.33,8.26,6.46,15.93,9.44,23.14-.13-6.52.56-12.69,3.28-17.83,2.03-3.78,4.91-6.12,7.46-8.19,6.73-5.46,13.69-11.1,21.66-14.34l2.45-1,.66,2.57c2.71,10.6,4.32,21.26,4.78,31.68.05,1.19.07,2.36-.29,3.45-.64,1.94-2.14,2.69-2.94,3.09-4.94,2.47-10.12,5.26-14.34,9.79-1.44,1.55-2.83,3.47-4.31,5.5-2.51,3.45-5.08,6.99-8.3,9.27,11.22,26.17,21.79,49.21,32.29,70.38,1.89,3.81-1.01,8.8-4.87,10.71-.98.49-1.96.72-2.87.72Zm-99.51-134.8c3.33,9.48,7.52,18.88,12.47,27.98.46.85.92,1.66,1.4,2.16.51.53,1.03.7,1.84.93,6.92,2.01,14.31,4.34,22,8.82,2.64,1.54,5.45,3.48,8.17,5.35,6.13,4.23,12.46,8.6,17.33,8.87l1.43.08.56,1.32c11.8,27.7,22.92,52.03,34,74.37.13.26.24.48,1.11.04,1.81-.9,3.34-3.39,2.78-4.52-10.1-20.36-20.26-42.44-30.99-67.35l.03.26-6.02-14.27c-3.81-9.04-7.83-18.75-12.18-29.48v.14s-10.58-26.45-10.58-26.45c-2.56-6.41-5.19-12.96-7.76-19.55l.06.65-5.1-13.81h0s-.96-2.61-.96-2.61c-9.25-25.05-20.05-58.25-21.41-92.86,0-.13-.02-.22-.03-.29l-1.36-.75.44-1.73c.85-3.36,1.37-7.29,1.88-11.08.43-3.27.88-6.65,1.54-9.62,1.92-8.65,5.39-15.52,8.77-21.81.42-.78.6-1.19.54-1.83-.07-.73-.47-1.77-.76-2.53-3.97-10.28-8.77-20.22-14.28-29.61-4.07,7.54-7.1,16.64-10.05,25.47-1.25,3.74-2.54,7.61-2.7,12.27-.36,11.47,5.03,23.62,10.25,35.36.93,2.09,1.86,4.19,2.76,6.28l.52,1.22-.79,1.07c-.53.73-.84,1.47-.82,1.98,1.72,43.64,18.37,85.47,34.47,125.92l2.27,5.72c8,20.14,15.31,38.02,22.35,54.66l-4.2,1.93c-1-2-1.97-4.03-2.95-6.06-5.33-11.05-10.84-22.49-19.67-29.85-3.62-3-7.38-4.74-11.01-6.43-8.44-3.92-17.13-7.96-25.38-10.38Zm96.55-5.99c-6.38,3.1-12.3,7.9-18.04,12.55-2.32,1.88-4.71,3.82-6.29,6.77-3.94,7.44-2.81,18.37-1.72,28.95l.78,7.57c3.02-1.66,5.68-5.31,8.25-8.86,1.49-2.05,3.03-4.17,4.67-5.93,4.75-5.1,10.34-8.12,15.66-10.78.5-.25.6-.33.62-.4.12-.38.08-1.3.06-1.8-.41-9.24-1.75-18.67-3.98-28.08Zm-18.49-47.83c-6.38,3.1-12.3,7.9-18.04,12.55-2.43,1.97-4.72,3.83-6.29,6.77-3.94,7.44-2.81,18.38-1.72,28.96.15,1.41.29,2.83.43,4.24l.32,3.34c3.03-1.65,5.7-5.32,8.29-8.88,1.49-2.05,3.03-4.17,4.66-5.92,4.75-5.1,10.34-8.12,15.66-10.78.5-.25.6-.33.62-.4.12-.38.08-1.3.06-1.8-.41-9.24-1.75-18.67-3.98-28.08Zm-18.46-47.84c-6.38,3.1-12.3,7.9-18.04,12.55-2.43,1.97-4.72,3.83-6.29,6.77-3.94,7.44-2.81,18.38-1.72,28.96.18,1.77.37,3.54.53,5.3l.21,2.3c3.03-1.64,5.7-5.32,8.29-8.88,1.49-2.06,3.04-4.18,4.67-5.94,4.74-5.1,10.33-8.12,15.66-10.78.5-.25.6-.33.62-.4.12-.37.08-1.3.06-1.8-.41-9.23-1.75-18.66-3.98-28.07Z"/>
                </g>
                <g>
                  <path class="cls-2" d="m63.7,282.68c7,3.72,14.08,7.7,21.02,13.53,8.22,6.9,17.42,18.21,25.73,20.43-5.62-15.33-8.77-32.11-19.75-44.57-3.46-3.9-7.21-6.58-10.89-9.2-9.78-6.96-19.62-13.96-29.33-18.51,1.85,10.91,4.94,22.2,9.1,33.25.38,1.01.79,2.05,1.39,2.89.81,1.13,1.81,1.68,2.74,2.18Z"/>
                  <path class="cls-2" d="m114.16,320.03l-4.3-1.15c-6.42-1.72-12.93-8-19.23-14.07-2.58-2.49-5.02-4.84-7.39-6.83-6.9-5.8-13.97-9.73-20.62-13.26h0c-.95-.51-2.38-1.27-3.53-2.88-.74-1.04-1.21-2.21-1.67-3.42-4.24-11.24-7.34-22.57-9.22-33.68l-.74-4.35,4,1.87c9.94,4.66,19.98,11.81,29.69,18.72,3.75,2.67,7.62,5.42,11.28,9.55,8.66,9.81,12.61,22.17,16.44,34.11,1.19,3.71,2.41,7.54,3.76,11.2l1.53,4.18Zm-49.37-39.39c6.87,3.65,14.18,7.72,21.42,13.8,2.49,2.09,5.1,4.61,7.63,7.04,4.24,4.09,8.58,8.28,12.66,10.82-.7-2.09-1.37-4.19-2.03-6.24-3.68-11.49-7.49-23.38-15.5-32.46-3.31-3.73-6.96-6.33-10.5-8.85-8.19-5.83-16.62-11.83-24.88-16.24,1.86,9.36,4.6,18.85,8.15,28.29.35.94.68,1.77,1.1,2.36.48.67,1.08,1.02,1.94,1.48h0Z"/>
                </g>
                <g>
                  <path class="cls-2" d="m124.84,318.58c7.2-1.02,11.57-10.78,16.77-16.37,4.4-4.73,9.68-7.63,15-10.29.71-.35,1.46-.75,1.78-1.75.24-.74.21-1.7.17-2.63-.45-10.22-2.05-20.81-4.71-31.21-7.62,3.1-14.37,8.56-21.08,14-2.53,2.05-5.09,4.15-6.88,7.47-5.64,10.64-1.84,26.6-1.06,40.78Z"/>
                  <path class="cls-2" d="m122.67,321.22l-.14-2.51c-.18-3.38-.55-6.94-.91-10.4-1.16-11.26-2.36-22.91,2.24-31.59,2.02-3.78,4.91-6.12,7.46-8.19,6.73-5.46,13.69-11.11,21.66-14.34l2.45-1,.66,2.57c2.71,10.6,4.32,21.26,4.78,31.68.05,1.19.07,2.36-.29,3.45-.64,1.94-2.14,2.69-2.94,3.09-4.94,2.47-10.12,5.26-14.34,9.8-1.44,1.55-2.84,3.48-4.32,5.51-3.83,5.27-7.78,10.72-13.82,11.58l-2.49.35Zm29.6-61.65c-6.38,3.1-12.3,7.9-18.04,12.56-2.43,1.97-4.72,3.82-6.29,6.77-3.94,7.43-2.81,18.37-1.72,28.94.26,2.51.52,5.09.72,7.63,3.05-1.64,5.71-5.31,8.3-8.88,1.49-2.06,3.04-4.19,4.67-5.95,4.74-5.1,10.33-8.12,15.66-10.78.5-.25.6-.33.62-.4.12-.38.08-1.3.06-1.8-.41-9.24-1.75-18.67-3.98-28.08Z"/>
                </g>
                <g>
                  <path class="cls-2" d="m127.13,365.15c-7.3-14.78-12.49-31.6-24.42-42.29-3.75-3.34-7.62-5.36-11.41-7.32-10.07-5.22-20.2-10.47-29.89-13.2,3.19,10.97,7.58,22.07,12.96,32.71.49.97,1.01,1.97,1.68,2.72.91,1.01,1.91,1.38,2.85,1.7,7.04,2.42,14.19,5.11,21.46,9.74,8.6,5.48,18.72,15.34,26.78,15.94Z"/>
                  <path class="cls-2" d="m130.99,367.75l-4.04-.3c-6.35-.47-13.31-5.69-20.05-10.73-2.74-2.05-5.33-3.99-7.8-5.57-7.19-4.58-14.3-7.21-20.97-9.5-.99-.34-2.48-.85-3.82-2.34-.84-.94-1.44-2.06-2.03-3.22-5.46-10.82-9.87-21.96-13.11-33.11l-1.16-4,4.01,1.13c9.95,2.81,20.31,8.18,30.33,13.37,3.7,1.92,7.89,4.09,11.89,7.65,9.42,8.44,14.77,20.47,19.94,32.11,1.61,3.61,3.27,7.35,5.01,10.89l1.79,3.63Zm-66.11-61.89c3.01,9.49,6.88,18.94,11.53,28.15.44.87.87,1.69,1.34,2.21.5.56,1.04.77,1.88,1.06,6.93,2.39,14.33,5.12,21.95,9.97,2.62,1.67,5.4,3.75,8.09,5.76,4.5,3.37,9.11,6.82,13.22,8.61-1-2.17-1.98-4.36-2.93-6.51-4.97-11.19-10.12-22.76-18.8-30.53-3.56-3.17-7.31-5.11-10.94-6.99-8.41-4.36-17.06-8.85-25.34-11.73Z"/>
                </g>
                <g>
                  <path class="cls-2" d="m148.74,420.13c-7.09-14.87-12.02-31.71-23.84-42.65-3.72-3.42-7.58-5.52-11.36-7.58-10.04-5.46-20.16-10.94-29.86-13.92,3.01,10.98,7.25,22.12,12.47,32.83.47.97.98,1.98,1.65,2.74.89,1.03,1.9,1.42,2.84,1.76,7.05,2.6,14.2,5.45,21.43,10.25,8.56,5.67,18.58,15.74,26.68,16.55Z"/>
                  <path class="cls-2" d="m152.59,422.84l-4.08-.41c-6.37-.64-13.28-6-19.97-11.19-2.72-2.11-5.3-4.11-7.76-5.74-7.17-4.75-14.28-7.55-20.96-10.01-.99-.36-2.47-.91-3.78-2.41-.84-.96-1.42-2.09-1.98-3.25-5.31-10.89-9.56-22.07-12.62-33.23l-1.11-4.05,4.02,1.23c9.95,3.05,20.29,8.67,30.29,14.09,3.68,2,7.86,4.27,11.82,7.91,9.33,8.63,14.51,20.72,19.51,32.41,1.55,3.63,3.16,7.39,4.86,10.94l1.77,3.7Zm-65.48-63.24c2.86,9.48,6.59,18.95,11.1,28.21.43.88.85,1.71,1.31,2.24.5.57,1.05.8,1.9,1.11,6.93,2.55,14.33,5.47,21.91,10.49,2.61,1.73,5.37,3.87,8.04,5.94,4.47,3.47,9.05,7.02,13.15,8.91-.96-2.17-1.89-4.35-2.81-6.48-4.81-11.25-9.79-22.87-18.39-30.83-3.54-3.25-7.28-5.28-10.89-7.25-8.39-4.56-17.03-9.25-25.31-12.33Z"/>
                </g>
              </g>
            </g>
          </g>
          <g>
            <path class="cls-5" d="m187.73,661.29h16.41v1.31c0,2.98-.35,5.62-1.06,7.92-.69,2.13-1.84,4.12-3.47,5.97-3.69,4.15-8.38,6.22-14.07,6.22s-10.32-2-14.28-6.02c-3.96-4.03-5.94-8.87-5.94-14.51s2.01-10.65,6.05-14.67c4.03-4.03,8.93-6.04,14.72-6.04,3.1,0,6,.63,8.7,1.9,2.57,1.27,5.1,3.33,7.59,6.17l-4.27,4.09c-3.26-4.34-7.23-6.51-11.91-6.51-4.2,0-7.73,1.45-10.57,4.35-2.85,2.85-4.27,6.41-4.27,10.7s1.59,8.07,4.76,10.93c2.97,2.66,6.18,3.99,9.65,3.99,2.95,0,5.6-1,7.95-2.98,2.35-2.01,3.66-4.41,3.93-7.2h-9.9v-5.64Z"/>
            <path class="cls-5" d="m217.68,642.25v34.09h11.68v5.64h-17.67v-39.72h6Z"/>
            <path class="cls-5" d="m239.83,642.25v23.93c0,3.41.56,5.91,1.67,7.49,1.66,2.28,4,3.42,7.02,3.42s5.39-1.14,7.05-3.42c1.12-1.53,1.67-4.02,1.67-7.49v-23.93h5.99v25.57c0,4.18-1.3,7.63-3.91,10.34-2.93,3.02-6.53,4.53-10.8,4.53s-7.86-1.51-10.78-4.53c-2.61-2.71-3.91-6.16-3.91-10.34v-25.57h5.99Z"/>
            <path class="cls-5" d="m283.71,647.89v34.09h-5.99v-34.09h-9.13v-5.63h24.23v5.63h-9.11Z"/>
            <path class="cls-5" d="m320.09,647.89h-15.92v9.54h15.46v5.63h-15.46v13.27h15.92v5.64h-21.92v-39.72h21.92v5.63Z"/>
            <path class="cls-5" d="m327.96,681.98v-42.42l28.97,30.3v-27.6h6v42.14l-28.97-30.23v27.81h-6Z"/>
            <path class="cls-5" d="m187.73,724.52h16.41v1.31c0,2.98-.35,5.62-1.06,7.92-.69,2.13-1.84,4.12-3.47,5.97-3.69,4.15-8.38,6.22-14.07,6.22s-10.32-2-14.28-6.02c-3.96-4.03-5.94-8.87-5.94-14.51s2.01-10.65,6.05-14.67c4.03-4.03,8.93-6.04,14.72-6.04,3.1,0,6,.63,8.7,1.9,2.57,1.27,5.1,3.33,7.59,6.17l-4.27,4.09c-3.26-4.34-7.23-6.51-11.91-6.51-4.2,0-7.73,1.45-10.57,4.35-2.85,2.85-4.27,6.41-4.27,10.7s1.59,8.07,4.76,10.93c2.97,2.66,6.18,3.99,9.65,3.99,2.95,0,5.6-1,7.95-2.98,2.35-2.01,3.66-4.41,3.93-7.2h-9.9v-5.64Z"/>
            <path class="cls-5" d="m217.68,705.48v34.09h11.68v5.64h-17.67v-39.72h6Z"/>
            <path class="cls-5" d="m239.83,705.48v23.93c0,3.41.56,5.91,1.67,7.49,1.66,2.28,4,3.42,7.02,3.42s5.39-1.14,7.05-3.42c1.12-1.52,1.67-4.02,1.67-7.49v-23.93h5.99v25.57c0,4.18-1.3,7.63-3.91,10.34-2.93,3.02-6.53,4.53-10.8,4.53s-7.86-1.51-10.78-4.53c-2.61-2.71-3.91-6.16-3.91-10.34v-25.57h5.99Z"/>
            <path class="cls-5" d="m283.71,711.11v34.09h-5.99v-34.09h-9.13v-5.64h24.23v5.64h-9.11Z"/>
            <path class="cls-5" d="m320.09,711.11h-15.92v9.54h15.46v5.63h-15.46v13.27h15.92v5.64h-21.92v-39.72h21.92v5.64Z"/>
            <path class="cls-5" d="m327.96,745.2v-42.42l28.97,30.3v-27.6h6v42.14l-28.97-30.23v27.81h-6Z"/>
          </g>
        </g>
      </g>
    </g>
  </g>
</svg>