<?xml version="1.0" encoding="UTF-8"?>
<svg xmlns="http://www.w3.org/2000/svg" xmlns:xlink="http://www.w3.org/1999/xlink" viewBox="0 0 526.07 722.61">
  <defs>
    <style>
      .cls-1 {
        fill: #fff;
      }

      .cls-2 {
        isolation: isolate;
      }

      .cls-3 {
        fill: #267a9b;
      }

      .cls-4 {
        fill: #36a7df;
      }

      .cls-5 {
        fill: #b0b0b0;
      }

      .cls-6 {
        clip-path: url(#clippath);
      }

      .cls-7 {
        fill: none;
      }

      .cls-8 {
        fill: url(#Degradado_sin_nombre_12);
        mix-blend-mode: multiply;
      }
    </style>
    <radialGradient id="Degradado_sin_nombre_12" data-name="Degradado sin nombre 12" cx="261.49" cy="262.97" fx="261.49" fy="262.97" r="391.35" gradientTransform="translate(262.54 -107.88) rotate(45)" gradientUnits="userSpaceOnUse">
      <stop offset="0" stop-color="#fff" stop-opacity="0"/>
      <stop offset="1" stop-color="#1d71b6"/>
    </radialGradient>
    <clipPath id="clippath">
      <path class="cls-7" d="m526.07,262.92c0,145.23-117.73,262.93-262.94,262.93S.21,408.15.21,262.92,117.93,0,263.13,0s262.94,117.71,262.94,262.92Z"/>
    </clipPath>
  </defs>
  <g class="cls-2">
    <g id="Layer_2" data-name="Layer 2">
      <g id="Capa_4" data-name="Capa 4">
        <g>
          <g>
            <circle class="cls-4" cx="261.49" cy="262.97" r="260.42" transform="translate(-109.36 261.93) rotate(-45)"/>
            <circle class="cls-8" cx="261.49" cy="262.97" r="260.42" transform="translate(-109.36 261.93) rotate(-45)"/>
            <path class="cls-3" d="m445.64,78.83c73.91,72.11,97.06,188.94,56.91,283.99-70.67,171.95-294.78,216.82-426.25,85.35C-55.19,316.71-10.31,92.58,161.64,21.91c95.05-40.14,211.89-17,283.99,56.92h0Zm0,0C373.5,5.22,256.69-17.93,162,22.79-7.82,93.26-52.04,316.4,78.41,446.06c129.65,130.45,352.81,86.24,423.27-83.59,40.7-94.68,17.58-211.5-56.04-283.63h0Z"/>
          </g>
          <g class="cls-6">
            <path class="cls-1" d="m179.92,480.84h163.57c12.91-10.99,18.81-50.27,16.63-110.87-3.45-95.85-24.73-208.39-32.52-213.6-18.19-10.27-29.16-31.36-31.72-60.99-1.63-18.87.57-35.33,1.34-40.24-7.38,1.2-23.19,3.55-35.51,3.55s-26.77-1.64-35.51-3.55c.77,4.91,2.97,21.37,1.34,40.24-2.56,29.63-13.53,50.72-31.73,60.99-7.78,5.2-29.06,117.75-32.51,213.59-2.18,60.6,3.72,99.88,16.63,110.87Z"/>
          </g>
          <g>
            <path class="cls-5" d="m203.46,658.66l8.36-42.71,13.63,30.87,14.12-30.87,7.51,42.71h-6.15l-3.83-23.98-11.76,25.8-11.42-25.83-4.27,24h-6.2Z"/>
            <path class="cls-5" d="m261.49,618.94v39.72h-5.99v-39.72h5.99Z"/>
            <path class="cls-5" d="m277.03,618.94v34.09h11.68v5.64h-17.67v-39.72h5.99Z"/>
            <path class="cls-5" d="m300.39,634.79l15.46-15.85h8l-17.96,17.98,18.06,21.74h-8.03l-14.3-17.67-1.23,1.23v16.44h-5.99v-39.72h5.99v15.85Z"/>
            <path class="cls-5" d="m193.27,682.16v34.09h11.68v5.64h-17.67v-39.72h5.99Z"/>
            <path class="cls-5" d="m232.55,687.8h-15.92v9.54h15.46v5.63h-15.46v13.27h15.92v5.64h-21.92v-39.72h21.92v5.64Z"/>
            <path class="cls-5" d="m269.78,684.3v7.1c-3.46-2.9-7.05-4.35-10.75-4.35-4.08,0-7.52,1.47-10.32,4.4-2.81,2.92-4.22,6.48-4.22,10.7s1.41,7.68,4.22,10.55c2.81,2.86,6.26,4.3,10.34,4.3,2.11,0,3.9-.34,5.38-1.03.82-.34,1.68-.81,2.56-1.39.88-.58,1.81-1.29,2.79-2.11v7.23c-3.43,1.94-7.03,2.91-10.8,2.91-5.68,0-10.52-1.98-14.54-5.94-4-3.99-5.99-8.81-5.99-14.46,0-5.06,1.67-9.57,5.02-13.53,4.12-4.85,9.44-7.28,15.98-7.28,3.57,0,7.01.97,10.34,2.91Z"/>
            <path class="cls-5" d="m284.44,697.7h17.13v-15.54h5.99v39.72h-5.99v-18.55h-17.13v18.55h-5.99v-39.72h5.99v15.54Z"/>
            <path class="cls-5" d="m339.01,687.8h-15.92v9.54h15.46v5.63h-15.46v13.27h15.92v5.64h-21.92v-39.72h21.92v5.64Z"/>
          </g>
        </g>
      </g>
    </g>
  </g>
</svg>