<?xml version="1.0" encoding="UTF-8"?>
<svg xmlns="http://www.w3.org/2000/svg" xmlns:xlink="http://www.w3.org/1999/xlink" viewBox="0 0 527.42 745.97">
  <defs>
    <style>
      .cls-1 {
        fill: url(#Degradado_sin_nombre_4);
        mix-blend-mode: multiply;
      }

      .cls-2 {
        fill: #fff;
      }

      .cls-3 {
        isolation: isolate;
      }

      .cls-4 {
        fill: #b0b0b0;
      }

      .cls-5 {
        clip-path: url(#clippath);
      }

      .cls-6 {
        fill: none;
      }

      .cls-7 {
        fill: #874d00;
      }

      .cls-8 {
        fill: #f7b033;
      }
    </style>
    <radialGradient id="Degradado_sin_nombre_4" data-name="Degradado sin nombre 4" cx="261.49" cy="261.92" fx="261.49" fy="261.92" r="391.35" gradientTransform="translate(261.79 -108.19) rotate(45)" gradientUnits="userSpaceOnUse">
      <stop offset="0" stop-color="#fff" stop-opacity="0"/>
      <stop offset="1" stop-color="#b06b0e"/>
    </radialGradient>
    <clipPath id="clippath">
      <path class="cls-6" d="m527.42,262.92c0,145.21-117.75,262.92-262.95,262.92S1.54,408.14,1.54,262.92,119.26,0,264.47,0s262.95,117.72,262.95,262.92Z"/>
    </clipPath>
  </defs>
  <g class="cls-3">
    <g id="Layer_2" data-name="Layer 2">
      <g id="Capa_4" data-name="Capa 4">
        <g>
          <g>
            <circle class="cls-8" cx="261.49" cy="261.92" r="260.42" transform="translate(-108.61 261.62) rotate(-45)"/>
            <circle class="cls-1" cx="261.49" cy="261.92" r="260.42" transform="translate(-108.61 261.62) rotate(-45)"/>
            <path class="cls-7" d="m445.64,77.77c73.91,72.11,97.06,188.94,56.91,283.99-70.68,171.95-294.78,216.82-426.25,85.35C-55.19,315.65-10.31,91.52,161.64,20.86c95.05-40.14,211.89-17,283.99,56.92h0Zm0,0C373.5,4.16,256.69-18.98,162,21.74-7.82,92.21-52.04,315.35,78.41,445c129.65,130.45,352.81,86.24,423.27-83.59,40.7-94.68,17.58-211.5-56.04-283.63h0Z"/>
          </g>
          <g class="cls-5">
            <g>
              <path class="cls-2" d="m347.87,98.6c-34.1,13.65-56.85,50.05-77.3,77.34-11.38,18.19-6.84,20.48-25.03,29.57-61.4,15.91-116,47.75-134.18,111.45-15.92,59.12,4.56,134.18,75.04,129.64,65.97-6.84,113.73-63.69,136.48-120.53,13.64-29.59,15.91-45.51,40.93-65.98,22.74-18.19,47.77-29.56,65.96-56.85,38.67-59.13-13.65-136.47-81.89-104.63Zm-120.53,218.36h4.54c43.22-2.29-6.82,45.48-36.39,34.11,2.28-15.92,15.93-29.58,31.84-34.11Zm-88.7-18.22l2.28,4.58c6.8,0,11.36-2.3,15.93,4.54-13.66,25.02-34.13,13.63-18.2-9.12Zm-13.66,65.97c2.27-11.37,11.38-20.46,25.03-25.02v2.26c40.94-18.18,13.64,38.69-25.03,22.75Zm34.12,56.86c-34.12-11.39,6.83-45.49,29.57-45.49h-6.82c45.48-22.74,25,63.68-22.75,45.49Zm72.78-20.46c-29.56,0-2.26-34.12,11.38-40.95l9.09,4.54c13.64,9.09-2.28,36.41-20.48,36.41Zm29.58-102.38c0-11.36,4.54-20.46,13.65-27.28h9.1c2.27,15.93-6.84,27.28-22.74,27.28Zm29.56,11.39l6.83,2.28c34.13,25.01-52.32,43.21-6.83-2.28Zm86.44-152.4l9.08,6.83c-2.27,13.64-11.36,20.47-25.01,15.92,0-11.36,4.56-18.19,15.93-22.74Zm-13.65,70.52c-11.38-15.94,18.21-29.58,20.47-29.58l11.38-4.54c4.54,13.64-18.2,52.32-31.85,34.12Zm15.93-88.71c2.28-9.08,9.09-18.19,18.19-22.73l13.65,4.55c-2.27,15.92-15.92,25.01-31.84,18.19Zm25.02,34.12c0-11.37,4.55-22.75,11.36-29.56l6.83,6.81c2.28,15.92-4.54,25.03-18.19,22.75Z"/>
              <path class="cls-2" d="m180.53,449.1c-22.83,0-41.84-8.59-55.3-25.04-20.61-25.18-26.93-67.45-16.1-107.7,15.92-55.76,61.53-93.78,135.59-113.03,11.97-6,13.22-8.53,16.9-15.95,1.6-3.23,3.59-7.24,6.99-12.67l.11-.16c2.74-3.66,5.52-7.48,8.37-11.39,18.63-25.6,39.75-54.61,69.87-66.69,29.74-13.85,60.54-8.24,80.38,14.66,21.95,25.33,23.74,63.72,4.36,93.36-13.19,19.78-30.12,31.52-46.5,42.87-6.61,4.58-13.44,9.31-19.95,14.52-19.24,15.75-24.62,28.54-32.77,47.9-2.15,5.12-4.59,10.93-7.51,17.25-21.68,54.17-69.45,114.72-138.34,121.86-2.06.13-4.1.2-6.11.2Zm91.95-271.85c-3.25,5.2-5.17,9.07-6.72,12.19-3.87,7.8-5.64,11.36-19.2,18.14l-.45.17c-72.5,18.79-117.1,55.75-132.54,109.85-10.45,38.82-4.48,79.48,15.22,103.54,13.67,16.69,33.53,24.71,57.45,23.16,66.76-6.92,113.26-66.06,134.48-119.08,2.92-6.36,5.25-11.87,7.49-17.21,8.11-19.28,13.97-33.21,34.12-49.7,6.66-5.32,13.56-10.1,20.23-14.73,16.76-11.61,32.59-22.58,45.28-41.62,18.25-27.91,16.61-64.01-4-87.79-18.72-21.61-46.76-26.64-75-13.47l-.12.05c-28.91,11.57-49.63,40.03-67.91,65.14-2.84,3.9-5.61,7.71-8.35,11.36Zm-100.38,249.14c-4.48,0-9.11-.87-13.77-2.64-14.27-4.78-15.15-13.24-14.39-17.86,1.97-12.1,18.17-24.88,32.95-29.9l3.94-1.97c14.95-7.48,22.03-2.98,24.91.36,6.42,7.45,4.58,23.09-4.19,35.6-7.53,10.73-17.99,16.41-29.45,16.41Zm16.58-50.65v2.65c-15.3,0-38.21,16.1-40.18,28.24-.92,5.64,2.9,9.93,11.34,12.74l.09.03c20.92,7.97,33.43-5.8,37.84-12.09,7.36-10.5,9.41-24.2,4.47-29.93-2.68-3.11-7.39-3.65-13.56-1.66Zm43.2,27.68c-10.96,0-14.33-4.56-15.24-8.39-2.79-11.81,15.22-31.75,25.59-36.93l1.03-.52,10.38,5.2c5.67,3.78,7.55,10.5,5.15,18.44-4.15,13.71-17.2,22.2-26.91,22.2Zm11.42-40.66c-9.63,5.49-24.16,22.74-22.16,31.2.76,3.21,4.37,4.83,10.74,4.83,10.35,0,19.73-9.82,22.48-18.92,1.03-3.41,1.98-9.64-3.17-13.18l-7.89-3.94Zm-104.54,7.05c-4.69,0-9.62-.9-14.65-2.98l-1.76-.72.37-1.87c2.43-12.18,12.11-21.93,26.56-26.75l3.04-1.02v2.01c11.45-4.38,16.49-2.19,18.7.59,2.97,3.73,1.88,9.94-2.83,16.21-5.99,7.96-16.81,14.52-29.43,14.52Zm-11.06-6.55c17.83,6.33,31.44-3.63,36.8-10.75,3.23-4.3,4.43-8.64,2.91-10.55-1.48-1.86-6.58-2.29-16.46,2.1l-3.25,1.44v-2.5c-10.4,4.25-17.53,11.46-20,20.26Zm77.79-8.14c-3.72,0-7.37-.58-10.83-1.91l-1.72-.66.26-1.82c2.33-16.25,16.1-31.06,33.5-36.01l.31-.09h4.87c10.01-.53,16.25,1.55,18.42,6.19,2.03,4.34-.01,10.12-5.74,16.26-7.85,8.41-23.97,18.04-39.07,18.04Zm-7.38-5.65c10.17,2.67,29.48-.98,43.06-15.55,4.17-4.47,6.06-8.74,4.93-11.15-1.24-2.65-6.38-3.93-14.11-3.52h-4.34c-14.86,4.35-26.72,16.57-29.55,30.22Zm88.34-9.14c-5.17,0-8.97-1.89-10.54-5.3-2.73-5.94,1.8-14.87,13.47-26.55l1.01-1.01,8.53,2.85.29.21c9.26,6.78,9.85,12.94,8.72,16.92-2.14,7.51-11.76,12.2-19.73,12.81-.6.05-1.19.07-1.75.07Zm5.2-27.57c-13.16,13.47-12.17,18.95-11.54,20.33.88,1.91,3.78,2.86,7.74,2.56,6.36-.49,14.14-4.25,15.63-9.47,1.29-4.53-2.87-8.83-6.72-11.71l-5.12-1.71Zm-151.63,11.54s-.1,0-.15,0c-3.55-.05-6.5-1.85-8.08-4.95-2.8-5.46-.99-13.46,4.96-21.96l2.23-3.19,3.36,6.74c.85-.04,1.66-.1,2.47-.16,4.73-.36,9.62-.74,13.97,5.77l.78,1.16-.67,1.23c-5.26,9.63-12.29,15.35-18.85,15.35Zm-1.62-20.89c-3.67,6.47-3.79,11.3-2.49,13.83.8,1.57,2.2,2.41,4.03,2.43.03,0,.05,0,.08,0,3.58,0,9.06-3.09,14.08-11.68-2.5-3.1-4.79-2.92-8.94-2.6-1.27.1-2.7.21-4.24.21h-1.43l-1.09-2.19Zm123.06-2.38h-2.31v-2.31c0-12.09,4.9-21.89,14.57-29.13l.62-.46h11.87l.28,1.98c1.23,8.63-.69,16.39-5.42,21.83-4.59,5.29-11.38,8.09-19.62,8.09Zm14.43-27.28c-7.52,5.85-11.47,13.26-12.04,22.57,5.77-.47,10.49-2.66,13.74-6.41,3.48-4.01,5.07-9.69,4.55-16.16h-6.25Zm96.15-38.41c-3.78,0-7.24-1.93-10.08-5.72l-.03-.05c-3.55-4.97-3.98-10.42-1.23-15.75,4.9-9.51,18.94-16.43,22.87-17.38l13.52-5.4.77,2.32c3.66,11.01-7.4,33.94-19.4,40.23-2.2,1.15-4.35,1.72-6.41,1.72Zm-6.37-8.47c3.03,4.02,6.41,4.86,10.64,2.65,9.61-5.03,18.19-22.93,17.6-32.22l-9.19,3.67h-.31c-2.01.47-16.5,7.12-20.12,16.08-1.37,3.38-.92,6.59,1.38,9.82Zm18.61-25.9s.02,0,.03,0h-.03Zm-14.82-16.8c-2.72,0-5.63-.5-8.66-1.52l-1.58-.53v-1.67c0-12.4,5.36-20.08,17.38-24.89l1.21-.48,11.25,8.45-.23,1.38c-1.3,7.84-4.72,13.63-9.89,16.74-2.77,1.67-5.97,2.51-9.47,2.51Zm-5.58-5.41c4.95,1.33,9.31.97,12.67-1.05,3.69-2.22,6.25-6.41,7.46-12.17l-6.88-5.17c-8.88,3.86-12.82,9.33-13.25,18.4Zm44.83-2.46c-1.38,0-2.83-.13-4.34-.38l-1.93-.32v-1.96c0-11.82,4.61-23.78,12.04-31.2l1.63-1.63,9.01,8.98.11.76c1.37,9.55-.32,16.95-4.89,21.41-2.93,2.86-6.9,4.33-11.63,4.33Zm-1.6-4.69c4.27.35,7.62-.63,10-2.95,3.31-3.23,4.6-9.14,3.65-16.69l-4.57-4.56c-5.2,6.13-8.62,15.23-9.07,24.2Zm-16.88-27.49c-3.7,0-7.56-.82-11.41-2.48l-1.81-.78.48-1.91c2.53-10.1,10.15-19.62,19.4-24.24l.86-.43,16.39,5.46-.27,1.91c-1.24,8.71-5.78,15.85-12.44,19.59-3.4,1.91-7.2,2.87-11.18,2.87Zm-7.7-5.99c6,2.08,11.83,1.78,16.61-.91,4.93-2.77,8.43-7.93,9.8-14.33l-10.82-3.61c-7.13,3.87-13.03,11.04-15.58,18.84Z"/>
            </g>
          </g>
          <g>
            <path class="cls-4" d="m157.23,665.89v16.13h-5.99v-39.72h6.79c3.33,0,5.84.23,7.54.7,1.71.46,3.23,1.34,4.53,2.62,2.28,2.23,3.42,5.04,3.42,8.44,0,3.64-1.22,6.52-3.65,8.64-2.44,2.13-5.72,3.19-9.85,3.19h-2.78Zm0-5.56h2.24c5.51,0,8.26-2.12,8.26-6.35s-2.84-6.15-8.51-6.15h-1.98v12.5Z"/>
            <path class="cls-4" d="m201.6,647.93h-15.93v9.54h15.46v5.63h-15.46v13.27h15.93v5.64h-21.92v-39.72h21.92v5.63Z"/>
            <path class="cls-4" d="m232.81,672.37h-17l-4.42,9.65h-6.46l19.65-42.22,18.96,42.22h-6.56l-4.17-9.65Zm-2.44-5.63l-5.89-13.51-6.17,13.51h12.07Z"/>
            <path class="cls-4" d="m248.5,682.02v-42.42l28.97,30.3v-27.6h6v42.14l-28.97-30.23v27.81h-6Z"/>
            <path class="cls-4" d="m298.98,642.3v23.93c0,3.41.56,5.91,1.67,7.49,1.66,2.28,4,3.42,7.02,3.42s5.39-1.14,7.05-3.42c1.12-1.53,1.67-4.02,1.67-7.49v-23.93h5.99v25.57c0,4.18-1.3,7.63-3.91,10.34-2.93,3.02-6.53,4.53-10.8,4.53s-7.86-1.51-10.78-4.53c-2.61-2.71-3.91-6.16-3.91-10.34v-25.57h5.99Z"/>
            <path class="cls-4" d="m342.86,647.93v34.09h-5.99v-34.09h-9.13v-5.63h24.23v5.63h-9.11Z"/>
            <path class="cls-4" d="m379.73,648.22l-4.86,2.88c-.91-1.58-1.77-2.61-2.6-3.09-.86-.55-1.97-.82-3.32-.82-1.66,0-3.04.47-4.14,1.41-1.1.93-1.65,2.09-1.65,3.5,0,1.94,1.44,3.5,4.32,4.68l3.96,1.62c3.22,1.3,5.58,2.89,7.07,4.77,1.49,1.88,2.24,4.18,2.24,6.91,0,3.65-1.22,6.67-3.65,9.06-2.45,2.4-5.5,3.6-9.13,3.6-3.45,0-6.29-1.02-8.54-3.06-2.21-2.04-3.59-4.91-4.14-8.62l6.07-1.34c.27,2.33.75,3.95,1.44,4.84,1.23,1.71,3.04,2.57,5.4,2.57,1.87,0,3.42-.63,4.66-1.88,1.23-1.25,1.85-2.84,1.85-4.76,0-.77-.11-1.48-.32-2.12-.21-.64-.55-1.23-1-1.78-.45-.54-1.04-1.05-1.76-1.52-.72-.47-1.58-.92-2.57-1.35l-3.83-1.59c-5.44-2.3-8.16-5.66-8.16-10.08,0-2.98,1.14-5.48,3.42-7.49,2.28-2.02,5.12-3.04,8.51-3.04,4.58,0,8.16,2.23,10.73,6.69Z"/>
            <path class="cls-4" d="m126.35,707.66v7.1c-3.46-2.9-7.05-4.35-10.75-4.35-4.08,0-7.52,1.47-10.32,4.4-2.81,2.92-4.22,6.48-4.22,10.7s1.41,7.68,4.22,10.55c2.81,2.86,6.26,4.3,10.34,4.3,2.11,0,3.9-.34,5.38-1.03.82-.34,1.68-.81,2.56-1.39.88-.58,1.81-1.29,2.79-2.11v7.23c-3.43,1.94-7.03,2.91-10.8,2.91-5.68,0-10.52-1.98-14.53-5.94-4-3.99-6-8.81-6-14.46,0-5.06,1.67-9.57,5.02-13.53,4.12-4.85,9.44-7.28,15.97-7.28,3.57,0,7.01.97,10.34,2.91Z"/>
            <path class="cls-4" d="m158.2,735.6h-17l-4.42,9.65h-6.46l19.65-42.22,18.96,42.22h-6.56l-4.17-9.65Zm-2.44-5.63l-5.89-13.51-6.17,13.51h12.07Z"/>
            <path class="cls-4" d="m201.4,707.66v7.1c-3.47-2.9-7.05-4.35-10.75-4.35-4.08,0-7.52,1.47-10.32,4.4-2.81,2.92-4.22,6.48-4.22,10.7s1.41,7.68,4.22,10.55c2.81,2.86,6.26,4.3,10.34,4.3,2.11,0,3.9-.34,5.38-1.03.82-.34,1.68-.81,2.56-1.39.88-.58,1.81-1.29,2.79-2.11v7.23c-3.43,1.94-7.03,2.91-10.8,2.91-5.68,0-10.52-1.98-14.54-5.94-4-3.99-5.99-8.81-5.99-14.46,0-5.06,1.67-9.57,5.02-13.53,4.12-4.85,9.44-7.28,15.98-7.28,3.57,0,7.01.97,10.34,2.91Z"/>
            <path class="cls-4" d="m233.25,735.6h-17.01l-4.43,9.65h-6.46l19.65-42.22,18.96,42.22h-6.56l-4.17-9.65Zm-2.45-5.63l-5.89-13.51-6.17,13.51h12.06Z"/>
            <path class="cls-4" d="m254.93,721.06h17.13v-15.54h6v39.72h-6v-18.55h-17.13v18.55h-5.99v-39.72h5.99v15.54Z"/>
            <path class="cls-4" d="m293.57,705.52v23.93c0,3.41.56,5.91,1.67,7.49,1.66,2.28,4,3.42,7.02,3.42s5.39-1.14,7.05-3.42c1.12-1.52,1.67-4.02,1.67-7.49v-23.93h5.99v25.57c0,4.18-1.3,7.63-3.91,10.34-2.93,3.02-6.53,4.53-10.8,4.53s-7.86-1.51-10.78-4.53c-2.61-2.71-3.91-6.16-3.91-10.34v-25.57h5.99Z"/>
            <path class="cls-4" d="m348.42,711.16h-15.92v9.54h15.46v5.63h-15.46v13.27h15.92v5.64h-21.92v-39.72h21.92v5.64Z"/>
            <path class="cls-4" d="m367.25,711.16v34.09h-5.99v-34.09h-9.13v-5.64h24.23v5.64h-9.11Z"/>
            <path class="cls-4" d="m403.63,711.16h-15.92v9.54h15.46v5.63h-15.46v13.27h15.92v5.64h-21.92v-39.72h21.92v5.64Z"/>
            <path class="cls-4" d="m433.96,711.44l-4.86,2.88c-.91-1.58-1.77-2.61-2.6-3.09-.86-.55-1.97-.82-3.32-.82-1.66,0-3.04.47-4.14,1.41-1.1.93-1.65,2.09-1.65,3.5,0,1.94,1.44,3.5,4.32,4.68l3.96,1.62c3.22,1.3,5.58,2.89,7.07,4.77,1.49,1.88,2.24,4.18,2.24,6.91,0,3.65-1.22,6.67-3.65,9.06-2.45,2.4-5.5,3.6-9.13,3.6-3.45,0-6.29-1.02-8.54-3.06-2.21-2.04-3.59-4.91-4.14-8.62l6.07-1.34c.27,2.33.75,3.95,1.44,4.84,1.23,1.71,3.04,2.57,5.4,2.57,1.87,0,3.42-.63,4.66-1.88,1.23-1.25,1.85-2.84,1.85-4.76,0-.77-.11-1.48-.32-2.12-.21-.64-.55-1.23-1-1.78-.45-.54-1.04-1.05-1.76-1.52s-1.58-.92-2.57-1.35l-3.83-1.59c-5.44-2.3-8.16-5.66-8.16-10.08,0-2.98,1.14-5.48,3.42-7.49,2.28-2.02,5.12-3.04,8.51-3.04,4.58,0,8.16,2.23,10.73,6.69Z"/>
          </g>
        </g>
      </g>
    </g>
  </g>
</svg>