<?xml version="1.0" encoding="UTF-8"?>
<svg xmlns="http://www.w3.org/2000/svg" xmlns:xlink="http://www.w3.org/1999/xlink" viewBox="0 0 525.87 725.32">
  <defs>
    <style>
      .cls-1 {
        fill: #fff;
      }

      .cls-2 {
        isolation: isolate;
      }

      .cls-3 {
        fill: #b0b0b0;
      }

      .cls-4 {
        fill: #2faa66;
      }

      .cls-5 {
        clip-path: url(#clippath);
      }

      .cls-6 {
        fill: none;
      }

      .cls-7 {
        fill: #063;
      }

      .cls-8 {
        fill: url(#Degradado_sin_nombre_2);
        mix-blend-mode: multiply;
      }
    </style>
    <radialGradient id="Degradado_sin_nombre_2" data-name="Degradado sin nombre 2" cx="264.46" cy="267.23" fx="264.46" fy="267.23" r="391.35" gradientUnits="userSpaceOnUse">
      <stop offset="0" stop-color="#fff" stop-opacity="0"/>
      <stop offset="1" stop-color="#063"/>
    </radialGradient>
    <clipPath id="clippath">
      <path class="cls-6" d="m525.87,262.91c0,145.22-117.73,262.93-262.94,262.93S0,408.14,0,262.91,117.73,0,262.94,0s262.94,117.71,262.94,262.91Z"/>
    </clipPath>
  </defs>
  <g class="cls-2">
    <g id="Layer_2" data-name="Layer 2">
      <g id="Capa_4" data-name="Capa 4">
        <g>
          <g>
            <circle class="cls-4" cx="264.46" cy="267.23" r="260.42"/>
            <circle class="cls-8" cx="264.46" cy="267.23" r="260.42"/>
            <path class="cls-7" d="m448.6,83.09c73.91,72.11,97.06,188.94,56.91,283.99-70.68,171.95-294.78,216.82-426.25,85.35C-52.22,320.96-7.34,96.83,164.61,26.17c95.05-40.14,211.89-17,283.99,56.92h0Zm0,0C376.46,9.47,259.65-13.67,164.97,27.05-4.86,97.52-49.07,320.66,81.38,450.31c129.65,130.45,352.81,86.24,423.27-83.59,40.7-94.68,17.58-211.5-56.04-283.63h0Z"/>
          </g>
          <g class="cls-5">
            <g>
              <g>
                <g>
                  <path class="cls-1" d="m305.05,431.52c-5.4-4.26-10.15-9.34-14.47-14.76-4.25-5.47-7.95-11.38-11.23-17.45-3.49-6.06-5.87-12.82-7.48-19.6-1.59-6.82-2.43-13.74-3.05-20.61-.28-3.44-.5-6.88-.71-10.31-.2-3.51-.23-6.94-.33-10.33-.09-3.38-.28-6.73-.88-9.94-.3-1.63-.69-3.14-1.29-4.58-.59-1.47-1.37-2.9-2.23-4.3-1.75-2.77-3.86-5.44-6.17-7.75-2.27-2.33-5.03-4.02-8.1-3.47-1.54.21-2.96.85-4.4,1.75-1.44.87-2.94,1.9-4.71,2.43-1.8.5-3.55.43-5.29.29-.87-.1-1.73-.25-2.57-.51-.81-.26-1.7-.64-2.13-1.42.52.71,1.39.95,2.21,1.11.83.15,1.68.19,2.52.19,1.67-.02,3.42-.13,4.89-.71,1.5-.6,2.79-1.65,4.18-2.69,1.37-1.05,3.05-2.04,4.9-2.46,1.84-.46,3.93-.28,5.71.45,1.8.71,3.31,1.84,4.66,3.01,2.7,2.37,4.96,5.05,7.04,7.97,1.01,1.48,1.96,3.02,2.73,4.7.79,1.7,1.3,3.52,1.67,5.25.76,3.52,1.05,7.04,1.25,10.51.19,3.47.21,6.89.45,10.23l.79,10.22c1.11,13.53,3.08,27.06,9.24,39.06,5.93,12.23,13.13,23.9,22.8,33.72Z"/>
                  <path class="cls-1" d="m303.62,433.33c-5.05-3.99-9.91-8.94-14.84-15.13-4.05-5.21-7.89-11.19-11.46-17.79-3.27-5.67-5.87-12.47-7.7-20.16-1.74-7.43-2.54-14.76-3.1-20.94-.28-3.48-.5-6.93-.71-10.37-.15-2.59-.21-5.14-.26-7.61l-.07-2.8c-.08-2.93-.24-6.35-.84-9.58-.3-1.65-.67-2.95-1.15-4.11-.49-1.22-1.16-2.51-2.06-3.98-1.67-2.65-3.7-5.19-5.84-7.33-2.16-2.21-4.19-3.16-6.06-2.82-1.16.16-2.27.61-3.58,1.43l-.64.39c-1.33.82-2.83,1.75-4.64,2.29-2.23.63-4.34.52-6.14.37-1.24-.14-2.19-.34-3.07-.61-1.09-.35-2.62-.99-3.46-2.5l3.88-2.49h0s.19.09.79.21c.56.1,1.22.13,2.06.14,1.36-.02,2.91-.09,4.06-.55,1-.4,1.97-1.13,3.08-1.97l.56-.42c1.88-1.45,3.83-2.42,5.77-2.86,2.24-.56,4.85-.36,7.1.57,2.24.89,4.01,2.29,5.3,3.4,2.6,2.29,5.02,5.02,7.4,8.38,1.27,1.86,2.2,3.47,2.94,5.08.75,1.62,1.35,3.5,1.83,5.73.81,3.77,1.1,7.45,1.29,10.86.08,1.5.13,2.99.18,4.47.07,1.98.13,3.86.26,5.73l.79,10.2c1.05,12.78,2.87,26.27,8.99,38.18,6.69,13.81,14.01,24.64,22.39,33.15l-3.08,3.43Z"/>
                </g>
                <g>
                  <path class="cls-1" d="m268.92,330.85c-1.07-1.83-1.99-8.21-1.83-10.47.19-2.25,1.04-4.48,2.35-6.35,2.61-3.77,6.68-6.35,10.97-7.55l1.6-.43c.59-.13,1.2-.24,1.85-.29,1.29-.09,2.78.13,3.96.7,1.19.55,2.09,1.23,2.94,1.85.85.62,1.65,1.26,2.43,1.86,3.14,2.41,6.62,4.17,10.74,5.22-4.16.75-8.73-.31-12.5-2.44-1.9-.96-3.66-2.31-5.13-2.81-1.37-.51-2.67-.26-4.69.37-3.62,1.02-4.87,6.8-7.43,9.5-2.56,2.67-5.71,6.59-5.24,10.84Z"/>
                  <path class="cls-1" d="m272.4,341.41l-5.48-9.39c-1.43-2.44-2.31-9.41-2.14-11.8.22-2.66,1.18-5.25,2.76-7.52,2.78-4.02,7.13-7.02,12.24-8.45l1.62-.43c.71-.16,1.45-.3,2.29-.36,1.78-.13,3.65.22,5.12.93,1.27.58,2.23,1.29,3.09,1.92l.2.15c.64.46,1.25.94,1.84,1.4l.64.5c2.99,2.3,6.23,3.87,9.89,4.8l10.32,2.63-10.48,1.89c-4.46.8-9.58-.18-14.04-2.7-.77-.39-1.61-.9-2.35-1.35-.91-.55-1.77-1.08-2.39-1.28-.72-.27-1.47-.17-3.27.38-1.37.39-2.48,2.45-3.55,4.45-.84,1.57-1.71,3.19-2.89,4.43-3.39,3.53-4.9,6.47-4.62,8.99l1.19,10.81Zm6.08-31.81c-2.95,1.29-5.44,3.27-7.15,5.74-1.11,1.58-1.8,3.44-1.95,5.23-.03.39-.02.91.02,1.51.98-1.4,2.09-2.63,3.08-3.67.74-.78,1.43-2.06,2.15-3.42,1.02-1.91,2.15-4.01,3.84-5.39Z"/>
                </g>
                <g>
                  <path class="cls-1" d="m268,320.03l-1.3.07c-.43-.03-.88-.1-1.33-.19-.87-.3-1.73-.9-2.2-1.8-.91-1.8-.67-3.77-.37-5.53.36-1.78.98-3.45,1.69-5.1.78-1.73,1.62-3.03,2.31-4.58,1.39-3.02,2.7-6.08,3.56-9.22.89-3.09,1.5-6.35,1.08-9.2-.37-2.94-1.76-5.89-3.33-8.79-1.54-2.94-3.43-5.84-4.86-9.11-.73-1.59-1.36-3.39-1.76-5.05l-1.29-4.97c-.38-1.69-.72-3.41-.85-5.17-.15-1.74-.06-3.56.54-5.18-.23,3.44,1.07,6.6,2.29,9.73l1.94,4.74c.63,1.59,1.23,2.98,2.07,4.43,1.65,2.83,3.55,5.62,5.39,8.61,1.76,3.02,3.45,6.33,4.03,10.18.45,3.95-.35,7.56-1.45,10.95-1.17,3.38-2.66,6.58-4.47,9.58-.86,1.49-1.96,3.01-2.76,4.31-.84,1.39-1.6,2.86-2.14,4.38-.55,1.49-.93,3.11-.55,4.51.2.7.71,1.25,1.38,1.68.35.17.74.33,1.13.46l1.25.24Z"/>
                  <path class="cls-1" d="m266.67,322.42h-.15c-.53-.05-1.07-.13-1.62-.25l-.28-.08c-1.55-.54-2.79-1.57-3.49-2.91-1.23-2.44-.96-4.88-.6-6.98.37-1.8.95-3.56,1.85-5.63.43-.95.86-1.76,1.28-2.55.36-.68.72-1.33,1.04-2.05,1.52-3.31,2.68-6.07,3.44-8.89,1-3.47,1.33-6.16,1.02-8.25-.34-2.69-1.67-5.44-3.07-8.02-.55-1.06-1.14-2.08-1.73-3.12-1.11-1.95-2.25-3.96-3.22-6.16-.77-1.68-1.45-3.62-1.89-5.43l-1.28-4.94c-.38-1.7-.77-3.59-.92-5.57-.2-2.34.03-4.42.68-6.16l5.56-14.94-1.08,15.9c-.19,2.77.86,5.46,1.97,8.31l2.09,5.12c.65,1.63,1.19,2.87,1.93,4.13.97,1.67,2.03,3.31,3.14,5.05.74,1.15,1.48,2.31,2.22,3.51,1.9,3.25,3.71,6.79,4.35,11.05.54,4.77-.54,8.92-1.54,12.01-1.24,3.58-2.81,6.95-4.69,10.07-.53.93-1.16,1.86-1.76,2.77-.36.54-.71,1.07-1.02,1.56-.84,1.38-1.49,2.71-1.93,3.94-.51,1.4-.68,2.45-.49,3.12,0,0,.07.11.28.26.19.09.4.17.6.25l19.41,3.75-20.09,1.11Z"/>
                </g>
                <g>
                  <path class="cls-1" d="m266.9,267.93c-1.31-1.19-2.1-2.98-2.41-4.81-.28-1.84-.16-3.71.17-5.47.65-3.54,1.98-6.77,2.99-9.81.49-1.39.87-3.11,1.36-4.7.52-1.6.95-3.22,1.55-4.82.3-.81.55-1.59.76-2.36.24-.85.4-1.33.28-1.68-.16-.51-.83-1.17-1.37-1.8-.58-.63-1.15-1.3-1.69-1.98.81.33,1.61.67,2.39,1.05.79.41,1.56.71,2.39,1.58.42.47.65,1.21.69,1.76.06.58.04,1.04.04,1.49,0,.91-.15,1.78-.27,2.61-.22,1.7-.59,3.37-.88,5.06-.35,1.69-.64,3.3-1.25,5.12-1.14,3.39-2.7,6.33-3.83,9.34-1.11,3-1.99,6.03-.93,9.41Z"/>
                  <path class="cls-1" d="m271.66,275.39l-6.32-5.76c-1.59-1.45-2.7-3.63-3.13-6.13-.3-1.97-.24-4.07.18-6.28.53-2.87,1.44-5.46,2.33-7.97.26-.72.51-1.44.74-2.14.27-.77.5-1.62.73-2.49.19-.72.39-1.45.61-2.16.18-.55.34-1.08.5-1.61.33-1.09.67-2.21,1.09-3.33.26-.7.49-1.41.7-2.17l.06-.21c.03-.1.06-.2.08-.28-.12-.14-.27-.31-.39-.44l-.37-.42c-.57-.63-1.18-1.33-1.76-2.06l-5.48-6.89,8.16,3.31c.86.35,1.7.7,2.53,1.1l.42.21c.74.37,1.67.84,2.65,1.87,1.09,1.22,1.29,2.72,1.32,3.16.06.59.05,1.12.05,1.54v.17c0,.95-.14,1.87-.26,2.68l-.04.24c-.15,1.15-.37,2.31-.58,3.44-.11.56-.21,1.11-.31,1.67l-.17.85c-.3,1.44-.6,2.94-1.15,4.6-.69,2.06-1.51,3.92-2.3,5.71-.57,1.29-1.1,2.5-1.56,3.72-1.15,3.11-1.67,5.41-.88,7.91l2.56,8.16Z"/>
                </g>
              </g>
              <g>
                <g>
                  <path class="cls-1" d="m268.97,73.58c-18.9,4.6-64.33,84.47-65.49,135.95-.6,26.88,23.55,54.28,60.69,56.14.73.04,2.06-93.58,2.8-93.58s-3.52,93.72-2.79,93.7c37.17-.5,65.87-35.39,66.42-59.43,1.18-51.86-39.84-128.51-58.52-132.81l-3.11.04Z"/>
                  <path class="cls-1" d="m263.23,268.11l-.19-.19c-17.51-1.1-33.45-7.93-44.99-19.29-11.04-10.87-17.19-25.14-16.88-39.15,1.19-52.58,47.01-133.22,67.25-138.14l.52-.07,3.39-.04.27.06c20.31,4.68,61.52,82.09,60.31,135.12-.55,24.47-29.64,61.16-68.7,61.69h-.99Zm4.63-48.3c-.61,27.52-.86,38.78-1.18,43.58,35.19-1.98,61.11-34.93,61.61-57.08,1.18-51.65-39.98-125.99-56.48-130.44l-2.53.03c-16.97,4.73-62.3,81.11-63.49,133.69-.68,30.48,28.1,51.13,56.03,53.6-.03-4.93.4-16.27,1.42-43.52,0-.28.01-.57.02-.85.26-11.7.52-23.4.76-32.18.12-4.4.23-8.07.34-10.63.2-4.66.26-6.23,2.61-6.23h.98l.69.71q1.03,1.07-.76,48.84c0,.16-.01.32-.02.48Z"/>
                </g>
                <g>
                  <path class="cls-1" d="m454.07,294.33c-5.78-15.68-78.39-46.72-122.44-42.71-23.01,2.07-43.75,29.07-41.73,60.97.04.61,79.79-11.04,79.86-10.35.04.59-79.91,9.76-79.86,10.35,4.05,31.74,36.21,49.15,56.78,47.29,44.39-4.04,105.84-46.5,107.72-62.86l-.33-2.69Z"/>
                  <path class="cls-1" d="m343.65,362.33c-10.53,0-22.84-4.3-32.91-11.62-12.74-9.27-20.88-22.34-23-36.89l-.07-.06-.07-1.01c-1.99-31.51,18.49-61.14,43.83-63.43,45.09-4.1,118.6,27.33,124.82,44.21l.12.52.37,2.97-.03.27c-2.06,17.88-64.33,60.77-109.81,64.9-1.06.09-2.14.14-3.24.14Zm-51.09-47.66c5.07,28.76,34.87,44.65,53.92,42.91,44.03-4,103.31-46.1,105.6-60.58l-.26-2.11c-2.49-5.93-18.75-17.06-45.43-27.15-27.52-10.4-55.38-15.57-74.55-13.83-22.27,2.01-40.36,27.81-39.74,55.92.29-.04.59-.08.91-.13,2.2-.31,5.33-.72,9.1-1.2,7.01-.89,16.2-2.02,25.54-3.16q42.42-5.85,43.55-4.94l.77.61.1.99c.15,2.32-1.47,2.55-5.39,3.1-2.18.31-5.31.72-9.06,1.19-7.47.95-17.45,2.17-27.43,3.39-.65.08-1.3.16-1.95.24-21.82,3.01-31.34,4.32-35.69,4.73Z"/>
                </g>
                <g>
                  <path class="cls-1" d="m68.95,284.46c1.64,17.31,66.28,67.69,111.53,75.42,23.64,3.98,50.97-13.83,57.41-46.39.13-.62-82.33-13.91-82.21-14.56.13-.59,82.11,15.2,82.21,14.56,4.36-32.86-22.6-62.68-43.75-66.28-45.62-7.76-118.57,18.62-124.81,34.48l-.37,2.78Z"/>
                  <path class="cls-1" d="m187.08,362.73c-2.35,0-4.69-.19-6.99-.58-46.31-7.91-111.69-58.94-113.45-77.48l-.02-.26.55-3.58c6.85-17.38,80.69-43.85,127.35-35.91,21.39,3.64,49.76,33.68,45.77,67.97l.06.08-.38,1.87c-3.24,15.36-11.36,28.61-22.93,37.38-9.03,6.84-19.63,10.51-29.95,10.51Zm-115.81-78.25c2.07,15.55,63.47,65.24,109.59,73.11,26.58,4.47,48.36-18,54.22-42.15-4.56-.65-14.82-2.54-39.06-7.02q-41.41-7-42.24-8.17l-.55-.79.16-.96c.5-2.34,2.13-2.07,6.08-1.42,2.18.36,5.29.91,9.03,1.58,7.45,1.34,17.41,3.18,27.47,5.04.28.05.57.11.85.16.4.07.79.13,1.18.2,23.34,3.95,33.39,5.65,37.86,6.59,2.65-31-22.82-57.9-42.13-61.19-45.24-7.69-116,18.86-122.17,32.81l-.29,2.2Z"/>
                </g>
              </g>
            </g>
          </g>
          <g>
            <path class="cls-3" d="m245.94,627.58l-4.86,2.88c-.91-1.58-1.78-2.61-2.6-3.09-.86-.55-1.96-.82-3.32-.82-1.66,0-3.04.47-4.14,1.41-1.1.93-1.65,2.09-1.65,3.5,0,1.94,1.44,3.5,4.32,4.68l3.96,1.62c3.22,1.3,5.58,2.89,7.07,4.77,1.49,1.88,2.24,4.18,2.24,6.91,0,3.65-1.22,6.67-3.65,9.06-2.45,2.4-5.5,3.6-9.13,3.6-3.45,0-6.29-1.02-8.54-3.06-2.21-2.04-3.59-4.91-4.14-8.62l6.07-1.34c.27,2.33.75,3.95,1.44,4.84,1.23,1.71,3.04,2.57,5.4,2.57,1.87,0,3.42-.63,4.66-1.88,1.23-1.25,1.85-2.84,1.85-4.76,0-.77-.11-1.48-.32-2.12-.21-.64-.55-1.23-1-1.78-.45-.54-1.04-1.05-1.76-1.52-.72-.47-1.58-.92-2.57-1.35l-3.83-1.59c-5.44-2.3-8.16-5.66-8.16-10.08,0-2.98,1.14-5.48,3.42-7.49,2.28-2.02,5.12-3.04,8.52-3.04,4.58,0,8.16,2.23,10.73,6.69Z"/>
            <path class="cls-3" d="m252.22,641.34c0-5.59,2.05-10.39,6.15-14.41,4.08-4.01,8.99-6.02,14.72-6.02s10.51,2.02,14.56,6.07c4.06,4.05,6.1,8.91,6.1,14.59s-2.04,10.56-6.12,14.54c-4.1,3.99-9.05,5.99-14.84,5.99-5.13,0-9.73-1.77-13.81-5.33-4.49-3.93-6.74-9.07-6.74-15.44Zm6.05.08c0,4.39,1.47,8,4.42,10.83,2.93,2.83,6.32,4.25,10.16,4.25,4.17,0,7.68-1.44,10.55-4.32,2.86-2.92,4.3-6.47,4.3-10.65s-1.42-7.79-4.24-10.65c-2.81-2.88-6.29-4.32-10.44-4.32s-7.62,1.44-10.47,4.32c-2.85,2.85-4.27,6.36-4.27,10.55Z"/>
            <path class="cls-3" d="m307.15,644.22l-12.97-22.56h6.9l9.08,15.87,9.11-15.87h6.89l-13.02,22.56v17.16h-5.99v-17.16Z"/>
            <path class="cls-3" d="m231.04,690.8l-4.86,2.88c-.91-1.58-1.78-2.61-2.6-3.09-.86-.55-1.96-.82-3.32-.82-1.66,0-3.04.47-4.14,1.41-1.1.93-1.65,2.09-1.65,3.5,0,1.94,1.44,3.5,4.32,4.68l3.96,1.62c3.22,1.3,5.58,2.89,7.07,4.77,1.49,1.88,2.24,4.18,2.24,6.91,0,3.65-1.22,6.67-3.65,9.06-2.45,2.4-5.5,3.6-9.13,3.6-3.45,0-6.29-1.02-8.54-3.06-2.21-2.04-3.59-4.91-4.14-8.62l6.07-1.34c.27,2.33.75,3.95,1.44,4.84,1.23,1.71,3.04,2.57,5.4,2.57,1.87,0,3.42-.63,4.66-1.88,1.23-1.25,1.85-2.84,1.85-4.76,0-.77-.11-1.48-.32-2.12-.21-.64-.55-1.23-1-1.78-.45-.54-1.04-1.05-1.76-1.52-.72-.47-1.58-.92-2.57-1.35l-3.83-1.59c-5.44-2.3-8.16-5.66-8.16-10.08,0-2.98,1.14-5.48,3.42-7.49,2.28-2.02,5.12-3.04,8.52-3.04,4.58,0,8.16,2.23,10.73,6.69Z"/>
            <path class="cls-3" d="m237.31,704.56c0-5.59,2.05-10.39,6.15-14.41,4.08-4.01,8.99-6.02,14.72-6.02s10.51,2.02,14.56,6.07c4.06,4.05,6.1,8.91,6.1,14.59s-2.04,10.56-6.12,14.54c-4.1,3.99-9.05,5.99-14.84,5.99-5.13,0-9.73-1.77-13.81-5.33-4.49-3.93-6.74-9.07-6.74-15.44Zm6.05.08c0,4.39,1.47,8,4.43,10.83,2.93,2.83,6.32,4.25,10.16,4.25,4.17,0,7.68-1.44,10.55-4.32,2.86-2.92,4.3-6.47,4.3-10.65s-1.41-7.79-4.24-10.65c-2.81-2.88-6.29-4.32-10.44-4.32s-7.62,1.44-10.47,4.32c-2.85,2.85-4.27,6.36-4.27,10.55Z"/>
            <path class="cls-3" d="m298.46,684.88v25.7c0,3.07-.22,5.36-.64,6.87-.43,1.71-1.16,3.16-2.19,4.35-2.01,2.35-4.67,3.52-7.98,3.52-2.5,0-4.85-.65-7.02-1.96l2.93-5.12c1.46.98,2.82,1.47,4.09,1.47,1.78,0,3.02-.68,3.7-2.03.72-1.36,1.08-3.72,1.08-7.1v-25.7h6.02Z"/>
            <path class="cls-3" d="m329.95,714.96h-17.01l-4.42,9.65h-6.46l19.65-42.22,18.96,42.22h-6.56l-4.17-9.65Zm-2.44-5.63l-5.89-13.51-6.17,13.51h12.06Z"/>
          </g>
        </g>
      </g>
    </g>
  </g>
</svg>