<?xml version="1.0" encoding="UTF-8"?>
<svg xmlns="http://www.w3.org/2000/svg" xmlns:xlink="http://www.w3.org/1999/xlink" viewBox="0 0 526.01 722.67">
  <defs>
    <style>
      .cls-1 {
        fill: #fff;
      }

      .cls-2 {
        fill: url(#Degradado_sin_nombre_18);
        mix-blend-mode: multiply;
      }

      .cls-3 {
        isolation: isolate;
      }

      .cls-4 {
        fill: #e56d55;
      }

      .cls-5 {
        fill: #b0b0b0;
      }

      .cls-6 {
        clip-path: url(#clippath);
      }

      .cls-7 {
        fill: none;
      }

      .cls-8 {
        fill: #7a382d;
      }
    </style>
    <radialGradient id="Degradado_sin_nombre_18" data-name="Degradado sin nombre 18" cx="263.02" cy="263.04" fx="263.02" fy="263.04" r="391.35" gradientTransform="translate(263.03 -108.94) rotate(45)" gradientUnits="userSpaceOnUse">
      <stop offset="0" stop-color="#fff" stop-opacity="0"/>
      <stop offset="1" stop-color="#6a3235"/>
    </radialGradient>
    <clipPath id="clippath">
      <path class="cls-7" d="m508.79,169.61c51.6,135.81-16.64,287.68-152.39,339.25-135.73,51.57-287.59-16.69-339.19-152.5C-34.36,220.63,33.88,68.78,169.61,17.21c135.75-51.57,287.61,16.66,339.18,152.4Z"/>
    </clipPath>
  </defs>
  <g class="cls-3">
    <g id="Layer_2" data-name="Layer 2">
      <g id="Capa_4" data-name="Capa 4">
        <g>
          <g>
            <circle class="cls-4" cx="263.02" cy="263.04" r="260.42" transform="translate(-108.96 263.02) rotate(-45)"/>
            <circle class="cls-2" cx="263.02" cy="263.04" r="260.42" transform="translate(-108.96 263.02) rotate(-45)"/>
            <path class="cls-8" d="m447.16,78.89c73.91,72.11,97.06,188.94,56.91,283.99-70.67,171.95-294.78,216.82-426.25,85.35C-53.66,316.77-8.79,92.64,163.17,21.98c95.05-40.14,211.89-17,283.99,56.92h0Zm0,0C375.02,5.28,258.21-17.86,163.53,22.85-6.3,93.33-50.51,316.46,79.93,446.12c129.65,130.45,352.81,86.24,423.27-83.59,40.7-94.68,17.58-211.5-56.04-283.63h0Z"/>
          </g>
          <g class="cls-6">
            <g>
              <g>
                <path class="cls-1" d="m243.85,92.74c-20.62-2.97-30.19-37.06-44.73-1.48l5.62,5.43c62.59,105.02,81.99,236.14,143.94,337.84,41.39-44.86-9.35-63.92,1.69-95.02,23.8,7.35,38.2,22.59,36.55,45.8,46.8-9.59,22.51-50.07,20.68-68.81,59.52,28.86,15.08-74.25,1.39-86.17-2.46-1.07,6.95-8.96,6.95-8.96,51.47,22.36,13.41-51.01-4.47-61.76-30.83-19.39-51.15-31.21-75.33-50.7-32.98-29.29-53.5-11.28-92.3-16.17Zm165.5,221.52c3.37-25.46-25-43.77-53.71-53.25l-2.45-1.07c27.99,6.17,73.13,19.8,56.16,54.32Zm-101.49-202.69c25.91,17.26,65.93,58.57,43,96.51-3.55-16.53-11.31-31.86-20.8-44.96-4.5,5.79-12.1,12.46-15.88,19.17-.48,1.06-.93,2.12-1.51,3.19.38-1.06.91-2.13,1.51-3.19,11.54-25.47-1.65-48.58-8.78-71.79l2.46,1.06Z"/>
                <path class="cls-1" d="m348.31,438.35l-1.59-2.62c-31.26-51.31-52.09-111.13-72.24-168.99-19.97-57.34-40.62-116.62-71.55-168.61l-6.52-6.3.59-1.45c4.37-10.69,8.54-16.01,13.57-17.26,5.71-1.42,10.88,2.9,16.35,7.48,4.98,4.16,10.63,8.88,17.26,9.84,12.78,1.61,23.35.7,33.57-.18,20.02-1.72,37.31-3.2,59.96,16.91,20.04,16.15,37.1,26.79,60.71,41.51,4.53,2.83,9.28,5.79,14.31,8.95,12.87,7.73,37.83,49.07,29.92,64.44-3.62,7.04-12.45,7.7-26.26,1.97-2.23,1.96-4.25,4.04-5.1,5.23,11.11,11.27,37.99,70.01,25.64,88.69-4.62,6.99-13.47,7.79-26.33,2.4.61,2.89,1.52,6.15,2.47,9.53,3.69,13.22,8.29,29.68.66,42.17-4.74,7.77-13.35,12.84-26.32,15.49l-2.98.61.22-3.04c1.79-25.26-16.3-37.15-32.73-42.72-2.71,10.39,1.91,19.63,6.79,29.38,8.41,16.81,17.94,35.86-8.3,64.29l-2.08,2.25ZM201.86,90.7l4.71,4.55.16.27c31.26,52.45,52.03,112.07,72.11,169.72,19.72,56.62,40.1,115.13,70.22,165.43,21.51-24.78,13.38-41.05,5.5-56.79-5.41-10.82-11.01-22.01-6.35-35.14l.74-2.09,2.12.65c25.06,7.74,38.55,23.68,38.3,45.09,10.02-2.5,16.71-6.67,20.4-12.72,6.58-10.77,2.28-26.16-1.17-38.51-.63-2.24-1.24-4.43-1.77-6.52l-1.61,3.27.86-6.48c-.36-1.67-.63-3.25-.77-4.71l-.4-4.1,2.19,1.06c3.64-29.63-38.99-46.12-52.18-50.47l-.2-.08-2.45-1.07,1.42-4.37c33.21,7.32,52.57,17.56,59.17,31.28,3.77,7.85,3.29,16.7-1.44,26.31l-.18.36c11.13,4.91,18.46,4.84,21.8-.21,4.58-6.92,2.74-23.1-5.03-44.39-6.66-18.25-15.84-34.66-20.37-38.82-.74-.46-1.22-1.19-1.34-2.07-.13-.91-.48-3.32,8.16-10.56l1.1-.92,1.31.57c8.21,3.57,18.63,6.59,21.65.72,6.19-12.02-16.23-51.18-28.23-58.39-5.06-3.19-9.81-6.14-14.34-8.97-22.86-14.25-40.91-25.51-61.25-41.91-21.24-18.86-36.84-17.52-56.58-15.83-9.98.86-21.29,1.83-34.56.15h-.04c-7.94-1.15-14.13-6.32-19.59-10.88-4.74-3.96-8.84-7.39-12.27-6.54-3.11.79-6.42,5.17-9.81,13.08Zm184.4,181.9c13.05,8.39,21.48,18.32,24.46,28.97.26-3.75-.41-7.26-2.02-10.6-3.39-7.05-10.81-13.14-22.44-18.37Zm-36.43-58.33l-1.22-5.7c-2.99-13.93-9.43-28.27-18.68-41.64-1.28,1.48-2.67,2.99-4.12,4.56-3.59,3.89-7.31,7.91-9.55,11.86l-.26.57c-.4.89-.8,1.77-1.27,2.67l-4.21-1.88c.39-1.07.91-2.2,1.61-3.45,8.87-19.68,2.46-37.59-4.32-56.55-1.58-4.42-3.22-8.99-4.61-13.51l-1.47-4.79,7.42,3.25c25.63,17.07,67.74,59.85,43.7,99.63l-3.01,4.99Zm-19.7-54.99l1.81,2.49c9.34,12.89,15.95,26.26,19.71,39.83,15.03-33.87-18.94-69.65-42.2-86.13.88,2.58,1.8,5.15,2.7,7.67,5.46,15.26,11.07,30.93,8.06,47.59.73-.8,1.46-1.59,2.19-2.38,2.17-2.35,4.22-4.57,5.83-6.65l1.89-2.43Z"/>
              </g>
              <g>
                <path class="cls-1" d="m194.25,95.51c-35.97-15.9-18.63,15.32-31.52,31.51-24.78,29.97-52.57,30.9-55.7,74.56-3.72,30.59-10.08,52.99-18.72,88.03-5.33,19.95,19.31,99.02,40.84,47.79,0,0,12.47-.68,11.43,1.76-1.43,17.94,39.73,122.92,62.51,61.49,12.04,14.82,23.23,60.68,64.18,35.79-17.77-15.71-18.18-36.53-6.09-58.05,30.27,15.03,6.9,63.38,69.09,67.71-27.51-115.87-106.94-224.08-136.22-342.83l.21-7.75Zm7.08,229.57c-14.12,26.39-21.74,58.99-1.1,75.14-37-13.45-13.84-54.06,2.14-77.58l-1.04,2.45Zm-25.97-85.24c1.2.36,2.34.78,3.38,1.29-1.18-.39-2.26-.85-3.38-1.29-7.55-2.3-17.83-1.96-25.24-3.09,2.44,15.97,7.74,32.34,16.91,46.73-43.74-11.88-44.08-69.06-37.5-99.22l1.03-2.43c11.34,21.69,18.24,47.41,44.8,58.02Z"/>
                <path class="cls-1" d="m333.24,448.62l-3.14-.22c-39.33-2.74-45.99-23-51.85-40.88-3.42-10.42-6.66-20.3-16.15-25.99-7.98,15.19-12.65,36.09,6.7,53.19l2.35,2.08-2.68,1.63c-11.3,6.87-21.15,9.06-30.1,6.7-14.47-3.82-22.87-18.88-29.62-30.99-1.75-3.14-3.44-6.17-5.08-8.71-5.51,12.64-12.48,18.12-20.77,16.29-22.32-4.93-44.71-65.94-44.66-81.73-1.46-.29-4.46-.43-7.54-.33-5.96,13.53-12.84,19.07-20.46,16.46-16.7-5.71-28.02-52.66-24.16-67.09,1.37-5.55,2.69-10.82,3.95-15.85,6.73-26.88,11.6-46.29,14.71-71.86,2.14-29.9,15.8-40.6,31.62-53,8.08-6.33,16.43-12.87,24.59-22.75,4.11-5.16,4.85-12.41,5.51-18.82.72-6.99,1.39-13.59,6.44-16.51,4.51-2.62,11.39-1.64,22.29,3.17l1.42.63-.24,8.99c14.55,58.83,41.85,115.92,68.25,171.15,26.57,55.56,54.04,113.02,67.9,171.4l.73,3.06Zm-73-73.28l1.97.98c12.75,6.33,16.66,18.24,20.44,29.76,5.51,16.79,11.2,34.13,44.62,37.45-13.98-56.84-40.83-113.02-66.82-167.37-26.55-55.53-54-112.94-68.64-172.34l-.07-.3.18-6.5c-8.25-3.49-13.85-4.43-16.69-2.79-3,1.74-3.54,6.96-4.16,12.99-.72,7.03-1.54,15.01-6.52,21.26-8.51,10.3-17.45,17.3-25.33,23.48-15.57,12.2-27.87,21.84-29.87,49.81-3.16,25.97-8.05,45.5-14.82,72.54-1.26,5.03-2.58,10.29-3.95,15.88-3.59,13.45,8.07,57.09,21.18,61.57,6.41,2.19,11.85-7.07,15.28-15.23l.56-1.33,1.44-.08c11.48-.63,12.88,1.37,13.4,2.12.5.71.65,1.55.45,2.37-.32,6.13,4.73,24.28,12.91,42.05,9.56,20.77,19.81,33.73,28.11,35.57,6.03,1.33,11.39-3.6,15.97-14.65l-.43-.16c-10.48-3.81-17.19-10.05-19.94-18.54-4.67-14.43,2.19-34.88,20.96-62.51l4.04,2.2-1.13,2.63c-6.5,12.14-25.79,53.16-1.86,72.11l.83-2.23,2.55,3.14c.94,1.15,1.86,2.48,2.79,3.92l5.43,4.25-3.64-1.32c1.09,1.85,2.19,3.82,3.31,5.84,6.33,11.34,14.2,25.45,26.77,28.77,7,1.85,14.83.33,23.87-4.64-15.44-15.35-16.98-36.08-4.26-58.75l1.07-1.92Zm-72.75-21.58c-4.83,11.72-6,21.21-3.59,28.66,1.2,3.7,3.27,6.86,6.27,9.5-5.47-9.87-6.36-22.98-2.68-38.17Zm-15.29-66.49l-5.77-1.57c-45.84-12.45-45.66-72.13-39.15-101.95l.13-.41,2.94-6.92,2.27,4.33c2.2,4.2,4.25,8.6,6.24,12.86,8.6,18.41,16.72,35.79,37.28,44.05,1.42.43,2.61.9,3.64,1.4l-1.75,4.26c-.93-.31-1.8-.66-2.68-1.01l-.74-.3c-4.48-1.35-10.08-1.73-15.49-2.11-2.16-.15-4.23-.29-6.2-.49,2.8,15.9,8.33,30.65,16.08,42.81l3.21,5.04Zm-41.08-99.2c-5.21,27.77-4.45,76.9,30.75,91.23-6.86-12.37-11.68-26.82-14.02-42.2l-.47-3.11,3.11.47c2.65.4,5.71.62,8.95.84,1.07.07,2.16.15,3.24.23-14.01-10.04-21.1-25.2-27.99-39.97-1.16-2.48-2.34-5-3.55-7.5Z"/>
              </g>
            </g>
          </g>
          <g>
            <path class="cls-5" d="m142.92,624.64v34.09h-5.99v-34.09h-9.13v-5.64h24.23v5.64h-9.11Z"/>
            <path class="cls-5" d="m170.83,641.8l12.3,16.93h-7.33l-11.35-16.26h-1.08v16.26h-5.99v-39.72h7.02c5.25,0,9.04.99,11.37,2.96,2.57,2.19,3.86,5.09,3.86,8.69,0,2.81-.81,5.23-2.42,7.26-1.61,2.02-3.74,3.32-6.38,3.88Zm-7.46-4.55h1.9c5.68,0,8.52-2.17,8.52-6.51,0-4.06-2.76-6.1-8.28-6.1h-2.14v12.6Z"/>
            <path class="cls-5" d="m211.02,624.64h-15.92v9.54h15.46v5.63h-15.46v13.27h15.92v5.64h-21.92v-39.72h21.92v5.64Z"/>
            <path class="cls-5" d="m240.81,624.64h-15.92v9.54h15.46v5.63h-15.46v13.27h15.92v5.64h-21.92v-39.72h21.92v5.64Z"/>
            <path class="cls-5" d="m264.94,658.72v-42.42l28.97,30.3v-27.6h5.99v42.14l-28.97-30.23v27.81h-5.99Z"/>
            <path class="cls-5" d="m315.41,619v23.93c0,3.41.56,5.91,1.67,7.49,1.66,2.28,4,3.42,7.02,3.42s5.39-1.14,7.05-3.42c1.11-1.52,1.67-4.02,1.67-7.49v-23.93h5.99v25.57c0,4.18-1.3,7.63-3.91,10.34-2.93,3.02-6.53,4.53-10.81,4.53s-7.86-1.51-10.78-4.53c-2.61-2.71-3.91-6.16-3.91-10.34v-25.57h5.99Z"/>
            <path class="cls-5" d="m359.3,624.64v34.09h-5.99v-34.09h-9.13v-5.64h24.23v5.64h-9.11Z"/>
            <path class="cls-5" d="m396.17,624.92l-4.86,2.88c-.91-1.58-1.78-2.61-2.6-3.09-.86-.55-1.96-.82-3.32-.82-1.66,0-3.04.47-4.14,1.41-1.1.93-1.65,2.09-1.65,3.5,0,1.94,1.44,3.5,4.32,4.68l3.96,1.62c3.22,1.3,5.58,2.89,7.07,4.77,1.49,1.88,2.24,4.18,2.24,6.91,0,3.65-1.22,6.67-3.65,9.06-2.45,2.4-5.5,3.6-9.13,3.6-3.45,0-6.29-1.02-8.54-3.06-2.21-2.04-3.59-4.91-4.14-8.62l6.07-1.34c.27,2.33.75,3.95,1.44,4.84,1.23,1.71,3.04,2.57,5.4,2.57,1.87,0,3.42-.63,4.66-1.88,1.23-1.25,1.85-2.84,1.85-4.76,0-.77-.11-1.48-.32-2.12-.21-.64-.55-1.23-1-1.78-.45-.54-1.04-1.05-1.76-1.52-.72-.47-1.58-.92-2.57-1.35l-3.83-1.59c-5.44-2.3-8.16-5.66-8.16-10.08,0-2.98,1.14-5.48,3.42-7.49,2.28-2.02,5.12-3.04,8.52-3.04,4.58,0,8.16,2.23,10.73,6.69Z"/>
            <path class="cls-5" d="m179.74,687.86v34.09h-5.99v-34.09h-9.13v-5.64h24.23v5.64h-9.11Z"/>
            <path class="cls-5" d="m207.65,705.02l12.3,16.93h-7.33l-11.35-16.26h-1.08v16.26h-5.99v-39.72h7.02c5.25,0,9.04.99,11.37,2.96,2.57,2.19,3.86,5.09,3.86,8.69,0,2.81-.81,5.23-2.42,7.26-1.61,2.02-3.74,3.32-6.38,3.88Zm-7.46-4.55h1.9c5.68,0,8.52-2.17,8.52-6.51,0-4.06-2.76-6.1-8.28-6.1h-2.14v12.6Z"/>
            <path class="cls-5" d="m249.25,712.3h-17l-4.42,9.65h-6.46l19.65-42.22,18.96,42.22h-6.56l-4.17-9.65Zm-2.44-5.63l-5.89-13.51-6.17,13.51h12.07Z"/>
            <path class="cls-5" d="m271.81,716.31h19.06v5.64h-28.92l19.5-34.09h-16.31v-5.64h26.16l-19.5,34.09Z"/>
            <path class="cls-5" d="m321.2,712.3h-17.01l-4.42,9.65h-6.46l19.65-42.22,18.96,42.22h-6.56l-4.17-9.65Zm-2.44-5.63l-5.89-13.51-6.17,13.51h12.07Z"/>
            <path class="cls-5" d="m359.36,688.14l-4.86,2.88c-.91-1.58-1.77-2.61-2.6-3.09-.86-.55-1.96-.82-3.32-.82-1.66,0-3.04.47-4.14,1.41-1.1.93-1.65,2.09-1.65,3.5,0,1.94,1.44,3.5,4.32,4.68l3.96,1.62c3.22,1.3,5.58,2.89,7.07,4.77,1.49,1.88,2.24,4.18,2.24,6.91,0,3.65-1.22,6.67-3.65,9.06-2.45,2.4-5.5,3.6-9.13,3.6-3.45,0-6.29-1.02-8.54-3.06-2.21-2.04-3.59-4.91-4.14-8.62l6.07-1.34c.27,2.33.75,3.95,1.44,4.84,1.23,1.71,3.04,2.57,5.4,2.57,1.87,0,3.42-.63,4.66-1.88,1.23-1.25,1.85-2.84,1.85-4.76,0-.77-.11-1.48-.32-2.12-.21-.64-.55-1.23-1-1.78-.45-.54-1.04-1.05-1.76-1.52-.72-.47-1.58-.92-2.57-1.35l-3.83-1.59c-5.44-2.3-8.15-5.66-8.15-10.08,0-2.98,1.14-5.48,3.42-7.49,2.28-2.02,5.12-3.04,8.52-3.04,4.58,0,8.16,2.23,10.73,6.69Z"/>
          </g>
        </g>
      </g>
    </g>
  </g>
</svg>